<svg width="734" height="733" xmlns="http://www.w3.org/2000/svg" xmlns:xlink="http://www.w3.org/1999/xlink" overflow="hidden"><defs><clipPath id="clip0"><rect x="3483" y="871" width="734" height="733"/></clipPath></defs><g clip-path="url(#clip0)" transform="translate(-3483 -871)"><path d="M0 0 0.000360892 207.874" stroke="#404040" stroke-width="18.3333" stroke-linecap="round" stroke-miterlimit="8" fill="#D9D9D9" fill-rule="evenodd" transform="matrix(1 0 0 -1 3850 1554.87)"/><path d="M3653 1114 3849.62 1346.38" stroke="#404040" stroke-width="18.3333" stroke-linecap="round" stroke-miterlimit="8" fill="#D9D9D9" fill-rule="evenodd"/><path d="M0 0 67.375 13.0795" stroke="#404040" stroke-width="18.3333" stroke-linecap="round" stroke-miterlimit="8" fill="#D9D9D9" fill-rule="evenodd" transform="matrix(1 0 0 -1 3637 1189.08)"/><path d="M0 0 66.7579 81.9969" stroke="#404040" stroke-width="18.3333" stroke-linecap="round" stroke-miterlimit="8" fill="#D9D9D9" fill-rule="evenodd" transform="matrix(1 0 0 -1 3679 1145)"/><path d="M0 0 6.25787 19.0927" stroke="#404040" stroke-width="18.3333" stroke-linecap="round" stroke-miterlimit="8" fill="#D9D9D9" fill-rule="evenodd" transform="matrix(1 0 0 -1 3740 1213.09)"/><path d="M0 0 35.75 19.9375" stroke="#404040" stroke-width="18.3333" stroke-linecap="round" stroke-miterlimit="8" fill="#D9D9D9" fill-rule="evenodd" transform="matrix(1 0 0 -1 3748 1287.94)"/><path d="M3638 1283 3746.62 1288.5" stroke="#404040" stroke-width="18.3333" stroke-linecap="round" stroke-miterlimit="8" fill="#D9D9D9" fill-rule="evenodd"/><path d="M3708.82 1285.5 3695 1236" stroke="#404040" stroke-width="18.3333" stroke-linecap="round" stroke-miterlimit="8" fill="#D9D9D9" fill-rule="evenodd"/><path d="M0 0 74.5939 10.6106" stroke="#404040" stroke-width="18.3333" stroke-linecap="round" stroke-miterlimit="8" fill="#D9D9D9" fill-rule="evenodd" transform="matrix(1 0 0 -1 3729 1089.61)"/><path d="M0 0 23.4454 26.1254" stroke="#404040" stroke-width="18.3333" stroke-linecap="round" stroke-miterlimit="8" fill="#D9D9D9" fill-rule="evenodd" transform="matrix(1 0 0 -1 3766 1236.13)"/><path d="M3789.78 1209.56 3763 1136" stroke="#404040" stroke-width="18.3333" stroke-linecap="round" stroke-miterlimit="8" fill="#D9D9D9" fill-rule="evenodd"/><path d="M0 0 15.6977 29.4878" stroke="#404040" stroke-width="18.3333" stroke-linecap="round" stroke-miterlimit="8" fill="#D9D9D9" fill-rule="evenodd" transform="matrix(1 0 0 -1 3776 1170.49)"/><path d="M3670.93 1180.44 3661 1164" stroke="#404040" stroke-width="18.3333" stroke-linecap="round" stroke-miterlimit="8" fill="#D9D9D9" fill-rule="evenodd"/><path d="M0 0 51.7386 62.7422" stroke="#404040" stroke-width="18.3333" stroke-linecap="round" stroke-miterlimit="8" fill="#D9D9D9" fill-rule="evenodd" transform="matrix(-1 0 0 1 3681.74 1287)"/><path d="M3650 1329 3684.29 1370.76" stroke="#404040" stroke-width="18.3333" stroke-linecap="round" stroke-miterlimit="8" fill="#D9D9D9" fill-rule="evenodd"/><path d="M0 0 36.9839 50.4275" stroke="#404040" stroke-width="18.3333" stroke-linecap="round" stroke-miterlimit="8" fill="#D9D9D9" fill-rule="evenodd" transform="matrix(-1 0 0 1 3810.98 1301)"/><path d="M3790.07 1329.06 3745 1325" stroke="#404040" stroke-width="18.3333" stroke-linecap="round" stroke-miterlimit="8" fill="#D9D9D9" fill-rule="evenodd"/><path d="M3670.17 1283.18 3555 1201" stroke="#404040" stroke-width="18.3333" stroke-linecap="round" stroke-miterlimit="8" fill="#D9D9D9" fill-rule="evenodd"/><path d="M0 0 32.7434 64.0209" stroke="#404040" stroke-width="18.3333" stroke-linecap="round" stroke-miterlimit="8" fill="#D9D9D9" fill-rule="evenodd" transform="matrix(1 0 0 -1 3578 1211.02)"/><path d="M3595.39 1170.9 3575 1136" stroke="#404040" stroke-width="18.3333" stroke-linecap="round" stroke-miterlimit="8" fill="#D9D9D9" fill-rule="evenodd"/><path d="M0 0 71.4105 43.7827" stroke="#404040" stroke-width="18.3333" stroke-linecap="round" stroke-miterlimit="8" fill="#D9D9D9" fill-rule="evenodd" transform="matrix(-1 0 0 1 3608.41 1240)"/><path d="M3573 1264 3577.64 1315.93" stroke="#404040" stroke-width="18.3333" stroke-linecap="round" stroke-miterlimit="8" fill="#D9D9D9" fill-rule="evenodd"/><path d="M3713.25 1103.92 3671 1021" stroke="#404040" stroke-width="18.3333" stroke-linecap="round" stroke-miterlimit="8" fill="#D9D9D9" fill-rule="evenodd"/><path d="M3684.51 1049.86 3594 1043" stroke="#404040" stroke-width="18.3333" stroke-linecap="round" stroke-miterlimit="8" fill="#D9D9D9" fill-rule="evenodd"/><path d="M0 0 30.7968 30.3471" stroke="#404040" stroke-width="18.3333" stroke-linecap="round" stroke-miterlimit="8" fill="#D9D9D9" fill-rule="evenodd" transform="matrix(-1 0 0 1 3629.8 1048)"/><path d="M3783.82 1080.49 3750 934" stroke="#404040" stroke-width="18.3333" stroke-linecap="round" stroke-miterlimit="8" fill="#D9D9D9" fill-rule="evenodd"/><path d="M0 0 34.6309 24.8792" stroke="#404040" stroke-width="18.3333" stroke-linecap="round" stroke-miterlimit="8" fill="#D9D9D9" fill-rule="evenodd" transform="matrix(1 0 0 -1 3776 1045.88)"/><path d="M3763.23 992.344 3693 967" stroke="#404040" stroke-width="18.3333" stroke-linecap="round" stroke-miterlimit="8" fill="#D9D9D9" fill-rule="evenodd"/><path d="M0 0 38.8984 26.5967" stroke="#404040" stroke-width="18.3333" stroke-linecap="round" stroke-miterlimit="8" fill="#D9D9D9" fill-rule="evenodd" transform="matrix(1 0 0 -1 3765 954.597)"/><path d="M0 0 196.625 232.375" stroke="#404040" stroke-width="18.3333" stroke-linecap="round" stroke-miterlimit="8" fill="#D9D9D9" fill-rule="evenodd" transform="matrix(-1 0 0 1 4046.62 1114)"/><path d="M4062.38 1189.08 3995 1176" stroke="#404040" stroke-width="18.3333" stroke-linecap="round" stroke-miterlimit="8" fill="#D9D9D9" fill-rule="evenodd"/><path d="M4020.76 1145 3954 1063" stroke="#404040" stroke-width="18.3333" stroke-linecap="round" stroke-miterlimit="8" fill="#D9D9D9" fill-rule="evenodd"/><path d="M3960.26 1213.09 3954 1194" stroke="#404040" stroke-width="18.3333" stroke-linecap="round" stroke-miterlimit="8" fill="#D9D9D9" fill-rule="evenodd"/><path d="M3951.75 1287.94 3916 1268" stroke="#404040" stroke-width="18.3333" stroke-linecap="round" stroke-miterlimit="8" fill="#D9D9D9" fill-rule="evenodd"/><path d="M0 0 71.7923 3.63491" stroke="#404040" stroke-width="18.3333" stroke-linecap="round" stroke-miterlimit="8" fill="#D9D9D9" fill-rule="evenodd" transform="matrix(-1 0 0 1 4024.79 1284)"/><path d="M0 0 13.8204 49.5004" stroke="#404040" stroke-width="18.3333" stroke-linecap="round" stroke-miterlimit="8" fill="#D9D9D9" fill-rule="evenodd" transform="matrix(1 0 0 -1 3991 1285.5)"/><path d="M3970.59 1089.61 3896 1079" stroke="#404040" stroke-width="18.3333" stroke-linecap="round" stroke-miterlimit="8" fill="#D9D9D9" fill-rule="evenodd"/><path d="M3933.45 1236.13 3910 1210" stroke="#404040" stroke-width="18.3333" stroke-linecap="round" stroke-miterlimit="8" fill="#D9D9D9" fill-rule="evenodd"/><path d="M0 0 26.7771 73.5621" stroke="#404040" stroke-width="18.3333" stroke-linecap="round" stroke-miterlimit="8" fill="#D9D9D9" fill-rule="evenodd" transform="matrix(1 0 0 -1 3910 1209.56)"/><path d="M3923.7 1170.49 3908 1141" stroke="#404040" stroke-width="18.3333" stroke-linecap="round" stroke-miterlimit="8" fill="#D9D9D9" fill-rule="evenodd"/><path d="M0 0 9.93356 16.4433" stroke="#404040" stroke-width="18.3333" stroke-linecap="round" stroke-miterlimit="8" fill="#D9D9D9" fill-rule="evenodd" transform="matrix(1 0 0 -1 4029 1180.44)"/><path d="M4018 1287 4069.74 1349.74" stroke="#404040" stroke-width="18.3333" stroke-linecap="round" stroke-miterlimit="8" fill="#D9D9D9" fill-rule="evenodd"/><path d="M0 0 34.2859 41.7596" stroke="#404040" stroke-width="18.3333" stroke-linecap="round" stroke-miterlimit="8" fill="#D9D9D9" fill-rule="evenodd" transform="matrix(-1 0 0 1 4049.29 1329)"/><path d="M3889 1301 3925.98 1351.43" stroke="#404040" stroke-width="18.3333" stroke-linecap="round" stroke-miterlimit="8" fill="#D9D9D9" fill-rule="evenodd"/><path d="M0 0 45.0664 4.05679" stroke="#404040" stroke-width="18.3333" stroke-linecap="round" stroke-miterlimit="8" fill="#D9D9D9" fill-rule="evenodd" transform="matrix(1 0 0 -1 3910 1329.06)"/><path d="M0 0 115.171 82.1781" stroke="#404040" stroke-width="18.3333" stroke-linecap="round" stroke-miterlimit="8" fill="#D9D9D9" fill-rule="evenodd" transform="matrix(1 0 0 -1 4029 1283.18)"/><path d="M4121.74 1211.02 4089 1147" stroke="#404040" stroke-width="18.3333" stroke-linecap="round" stroke-miterlimit="8" fill="#D9D9D9" fill-rule="evenodd"/><path d="M0 0 20.3944 34.9005" stroke="#404040" stroke-width="18.3333" stroke-linecap="round" stroke-miterlimit="8" fill="#D9D9D9" fill-rule="evenodd" transform="matrix(1 0 0 -1 4104 1170.9)"/><path d="M4091 1240 4162.41 1283.78" stroke="#404040" stroke-width="18.3333" stroke-linecap="round" stroke-miterlimit="8" fill="#D9D9D9" fill-rule="evenodd"/><path d="M0 0 4.64324 51.9299" stroke="#404040" stroke-width="18.3333" stroke-linecap="round" stroke-miterlimit="8" fill="#D9D9D9" fill-rule="evenodd" transform="matrix(-1 0 0 1 4126.64 1264)"/><path d="M0 0 42.2461 82.9215" stroke="#404040" stroke-width="18.3333" stroke-linecap="round" stroke-miterlimit="8" fill="#D9D9D9" fill-rule="evenodd" transform="matrix(1 0 0 -1 3987 1103.92)"/><path d="M0 0 90.5078 6.8602" stroke="#404040" stroke-width="18.3333" stroke-linecap="round" stroke-miterlimit="8" fill="#D9D9D9" fill-rule="evenodd" transform="matrix(1 0 0 -1 4015 1049.86)"/><path d="M4070 1048 4100.8 1078.35" stroke="#404040" stroke-width="18.3333" stroke-linecap="round" stroke-miterlimit="8" fill="#D9D9D9" fill-rule="evenodd"/><path d="M0 0 33.816 146.495" stroke="#404040" stroke-width="18.3333" stroke-linecap="round" stroke-miterlimit="8" fill="#D9D9D9" fill-rule="evenodd" transform="matrix(1 0 0 -1 3916 1080.49)"/><path d="M3923.63 1045.88 3889 1021" stroke="#404040" stroke-width="18.3333" stroke-linecap="round" stroke-miterlimit="8" fill="#D9D9D9" fill-rule="evenodd"/><path d="M0 0 70.2304 25.3444" stroke="#404040" stroke-width="18.3333" stroke-linecap="round" stroke-miterlimit="8" fill="#D9D9D9" fill-rule="evenodd" transform="matrix(1 0 0 -1 3937 992.344)"/><path d="M3934.9 954.597 3896 928" stroke="#404040" stroke-width="18.3333" stroke-linecap="round" stroke-miterlimit="8" fill="#D9D9D9" fill-rule="evenodd"/><path d="M0 0 0.000360892 73.8007" stroke="#FFFFFF" stroke-width="13.75" stroke-linecap="round" stroke-miterlimit="8" fill="none" fill-rule="evenodd" transform="matrix(1 0 0 -1 3637 1273.8)"/><path d="M3683.7 1223.55 3647 1196" stroke="#FFFFFF" stroke-width="13.75" stroke-linecap="round" stroke-miterlimit="8" fill="none" fill-rule="evenodd"/><path d="M0 0 36.6966 27.548" stroke="#FFFFFF" stroke-width="13.75" stroke-linecap="round" stroke-miterlimit="8" fill="none" fill-rule="evenodd" transform="matrix(-1 0 0 1 3738.7 1196)"/><path d="M3748 1200 3748 1273.8" stroke="#FFFFFF" stroke-width="13.75" stroke-linecap="round" stroke-miterlimit="8" fill="none" fill-rule="evenodd"/><path d="M0 0 40.4611 33.1025" stroke="#4472C4" stroke-width="4.58333" stroke-linecap="round" stroke-miterlimit="8" fill="none" fill-rule="evenodd" transform="matrix(-1 0 0 1 3801.96 1027.5)"/><path d="M3953 1200 3953 1273.8" stroke="#FFFFFF" stroke-width="13.75" stroke-linecap="round" stroke-miterlimit="8" fill="none" fill-rule="evenodd"/><path d="M0 0 46.7031 0.000360892" stroke="#FFFFFF" stroke-width="13.75" stroke-linecap="round" stroke-miterlimit="8" fill="none" fill-rule="evenodd" transform="matrix(-1 0 0 1 4012.7 1287)"/><path d="M3913.5 1147.5 3944.15 1178.23" stroke="#FFFFFF" stroke-width="4.58333" stroke-linecap="round" stroke-miterlimit="8" fill="none" fill-rule="evenodd"/><path d="M0 0 72.9511 56.2584" stroke="#FFFFFF" stroke-width="4.58333" stroke-linecap="round" stroke-miterlimit="8" fill="none" fill-rule="evenodd" transform="matrix(-1 0 0 1 4035.45 1121.5)"/><path d="M0 0 14.2473 47.0145" stroke="#FFFFFF" stroke-width="4.58333" stroke-linecap="round" stroke-miterlimit="8" fill="none" fill-rule="evenodd" transform="matrix(-1 0 0 1 3952.75 1073.5)"/><path d="M0 0 34.0794 18.4716" stroke="#FFFFFF" stroke-width="4.58333" stroke-linecap="round" stroke-miterlimit="8" fill="none" fill-rule="evenodd" transform="matrix(1 0 0 -1 3905.5 1078.97)"/><path d="M4090.95 1067.27 4036.5 1030.5" stroke="#FFFFFF" stroke-width="4.58333" stroke-linecap="round" stroke-miterlimit="8" fill="none" fill-rule="evenodd"/><path d="M3965.5 1060.5 4035.37 1103.26" stroke="#FFFFFF" stroke-width="4.58333" stroke-linecap="round" stroke-miterlimit="8" fill="none" fill-rule="evenodd"/><path d="M4100.5 1089.5 4116.87 1126.49" stroke="#FFFFFF" stroke-width="4.58333" stroke-linecap="round" stroke-miterlimit="8" fill="none" fill-rule="evenodd"/><path d="M0 0 7.70397 8.76211" stroke="#FFFFFF" stroke-width="4.58333" stroke-linecap="round" stroke-miterlimit="8" fill="none" fill-rule="evenodd" transform="matrix(-1 0 0 1 4108.2 1055.5)"/><path d="M4057.5 1112.5 4113.29 1135.74" stroke="#FFFFFF" stroke-width="4.58333" stroke-linecap="round" stroke-miterlimit="8" fill="none" fill-rule="evenodd"/><path d="M4126.5 1149.5 4148.11 1187.68" stroke="#FFFFFF" stroke-width="4.58333" stroke-linecap="round" stroke-miterlimit="8" fill="none" fill-rule="evenodd"/><path d="M4034.5 1296.5 4109.92 1316.66" stroke="#FFFFFF" stroke-width="4.58333" stroke-linecap="round" stroke-miterlimit="8" fill="none" fill-rule="evenodd"/><path d="M0 0 20.7892 21.5402" stroke="#FFFFFF" stroke-width="4.58333" stroke-linecap="round" stroke-miterlimit="8" fill="none" fill-rule="evenodd" transform="matrix(1 0 0 -1 4132.5 1307.04)"/><path d="M0 0 0.891043 66.6157" stroke="#FFFFFF" stroke-width="4.58333" stroke-linecap="round" stroke-miterlimit="8" fill="none" fill-rule="evenodd" transform="matrix(-1 0 0 1 4016.39 1296.5)"/><path d="M0 0 32.4468 16.5577" stroke="#FFFFFF" stroke-width="4.58333" stroke-linecap="round" stroke-miterlimit="8" fill="none" fill-rule="evenodd" transform="matrix(1 0 0 -1 4028.5 1376.06)"/><path d="M3953.5 1300.5 3957.95 1311.58" stroke="#FFFFFF" stroke-width="4.58333" stroke-linecap="round" stroke-miterlimit="8" fill="none" fill-rule="evenodd"/><path d="M3903.5 1151.5 3925.82 1340.94" stroke="#FFFFFF" stroke-width="4.58333" stroke-linecap="round" stroke-miterlimit="8" fill="none" fill-rule="evenodd"/><path d="M4049.5 1166.5 4122.89 1303.95" stroke="#FFFFFF" stroke-width="4.58333" stroke-linecap="round" stroke-miterlimit="8" fill="none" fill-rule="evenodd"/><path d="M0 0 43.1584 70.3249" stroke="#FFFFFF" stroke-width="4.58333" stroke-linecap="round" stroke-miterlimit="8" fill="none" fill-rule="evenodd" transform="matrix(1 0 0 -1 3898.5 1009.82)"/><path d="M3902.5 1018.5 4014.6 1021.66" stroke="#FFFFFF" stroke-width="4.58333" stroke-linecap="round" stroke-miterlimit="8" fill="none" fill-rule="evenodd"/><path d="M3960.5 939.5 4000.07 958.838" stroke="#FFFFFF" stroke-width="4.58333" stroke-linecap="round" stroke-miterlimit="8" fill="none" fill-rule="evenodd"/><path d="M0 0 0.000360892 64.3038" stroke="#FFFFFF" stroke-width="4.58333" stroke-linecap="round" stroke-miterlimit="8" fill="none" fill-rule="evenodd" transform="matrix(1 0 0 -1 3889.5 1005.8)"/><path d="M0 0 18.6964 54.197" stroke="#FFFFFF" stroke-width="4.58333" stroke-linecap="round" stroke-miterlimit="8" fill="none" fill-rule="evenodd" transform="matrix(1 0 0 -1 4012.5 1220.7)"/><path d="M3492 1237.5C3492 1040.06 3652.28 880 3850 880 4047.72 880 4208 1040.06 4208 1237.5 4208 1434.94 4047.72 1595 3850 1595 3652.28 1595 3492 1434.94 3492 1237.5Z" stroke="#FFFFFF" stroke-width="18.3333" stroke-miterlimit="8" fill="none" fill-rule="evenodd"/><path d="M0 0 84.9887 80.0261" stroke="#FFFFFF" stroke-width="4.58333" stroke-linecap="round" stroke-miterlimit="8" fill="none" fill-rule="evenodd" transform="matrix(-1 0 0 1 3628.49 1196.5)"/><path d="M3568.09 1307.85 3543.5 1295.5" stroke="#FFFFFF" stroke-width="4.58333" stroke-linecap="round" stroke-miterlimit="8" fill="none" fill-rule="evenodd"/><path d="M0 0 7.34777 37.0658" stroke="#FFFFFF" stroke-width="4.58333" stroke-linecap="round" stroke-miterlimit="8" fill="none" fill-rule="evenodd" transform="matrix(1 0 0 -1 3630.5 1337.57)"/><path d="M3729.95 1324.57 3650.5 1287.5" stroke="#FFFFFF" stroke-width="4.58333" stroke-linecap="round" stroke-miterlimit="8" fill="none" fill-rule="evenodd"/><path d="M0 0 39.7812 33.3551" stroke="#FFFFFF" stroke-width="4.58333" stroke-linecap="round" stroke-miterlimit="8" fill="none" fill-rule="evenodd" transform="matrix(1 0 0 -1 3694.5 1366.85)"/><path d="M3765.29 1344.6 3752.5 1333.5" stroke="#FFFFFF" stroke-width="4.58333" stroke-linecap="round" stroke-miterlimit="8" fill="none" fill-rule="evenodd"/><path d="M0 0 85.0162 69.0301" stroke="#FFFFFF" stroke-width="4.58333" stroke-linecap="round" stroke-miterlimit="8" fill="none" fill-rule="evenodd" transform="matrix(-1 0 0 1 3647.52 1121.5)"/><path d="M0 0 59.5985 14.0492" stroke="#FFFFFF" stroke-width="4.58333" stroke-linecap="round" stroke-miterlimit="8" fill="none" fill-rule="evenodd" transform="matrix(-1 0 0 1 3643.1 1112.5)"/><path d="M0 0 16.3708 36.9897" stroke="#FFFFFF" stroke-width="4.58333" stroke-linecap="round" stroke-miterlimit="8" fill="none" fill-rule="evenodd" transform="matrix(1 0 0 -1 3574.5 1123.49)"/><path d="M0 0 76.6882 23.0718" stroke="#FFFFFF" stroke-width="4.58333" stroke-linecap="round" stroke-miterlimit="8" fill="none" fill-rule="evenodd" transform="matrix(-1 0 0 1 3750.19 1133.5)"/><path d="M0 0 14.719 27.5935" stroke="#FFFFFF" stroke-width="4.58333" stroke-linecap="round" stroke-miterlimit="8" fill="none" fill-rule="evenodd" transform="matrix(-1 0 0 1 3763.22 1146.5)"/><path d="M0 0 39.5856 126.709" stroke="#FFFFFF" stroke-width="4.58333" stroke-linecap="round" stroke-miterlimit="8" fill="none" fill-rule="evenodd" transform="matrix(1 0 0 -1 3757.5 1278.21)"/><path d="M3762.75 1120.51 3748.5 1073.5" stroke="#FFFFFF" stroke-width="4.58333" stroke-linecap="round" stroke-miterlimit="8" fill="none" fill-rule="evenodd"/><path d="M0 0 27.4426 36.1535" stroke="#FFFFFF" stroke-width="4.58333" stroke-linecap="round" stroke-miterlimit="8" fill="none" fill-rule="evenodd" transform="matrix(1 0 0 -1 3771.5 1124.65)"/><path d="M3753.35 1124.86 3601.5 1051.5" stroke="#FFFFFF" stroke-width="4.58333" stroke-linecap="round" stroke-miterlimit="8" fill="none" fill-rule="evenodd"/><path d="M0 0 58.3502 11.2079" stroke="#FFFFFF" stroke-width="4.58333" stroke-linecap="round" stroke-miterlimit="8" fill="none" fill-rule="evenodd" transform="matrix(-1 0 0 1 3659.85 1021.5)"/><path d="M3705.5 976.5 3738.96 1051.45" stroke="#FFFFFF" stroke-width="4.58333" stroke-linecap="round" stroke-miterlimit="8" fill="none" fill-rule="evenodd"/><path d="M0 0 40.4611 33.1025" stroke="#FFFFFF" stroke-width="4.58333" stroke-linecap="round" stroke-miterlimit="8" fill="none" fill-rule="evenodd" transform="matrix(-1 0 0 1 3801.96 1027.5)"/><path d="M0 0 1.10794 105.004" stroke="#FFFFFF" stroke-width="4.58333" stroke-linecap="round" stroke-miterlimit="8" fill="none" fill-rule="evenodd" transform="matrix(-1 0 0 1 3749.61 942.5)"/><path d="M0 0 35.5479 1.58937" stroke="#FFFFFF" stroke-width="4.58333" stroke-linecap="round" stroke-miterlimit="8" fill="none" fill-rule="evenodd" transform="matrix(1 0 0 -1 3762.5 930.089)"/><path d="M3660.12 1143.64 3656.5 1125.5" stroke="#FFFFFF" stroke-width="4.58333" stroke-linecap="round" stroke-miterlimit="8" fill="none" fill-rule="evenodd"/><path d="M3624 1287C3624 1279.82 3629.82 1274 3637 1274 3644.18 1274 3650 1279.82 3650 1287 3650 1294.18 3644.18 1300 3637 1300 3629.82 1300 3624 1294.18 3624 1287Z" fill="#FFFFFF" fill-rule="evenodd"/><path d="M3679 1233C3679 1225.82 3684.82 1220 3692 1220 3699.18 1220 3705 1225.82 3705 1233 3705 1240.18 3699.18 1246 3692 1246 3684.82 1246 3679 1240.18 3679 1233Z" fill="#FFFFFF" fill-rule="evenodd"/><path d="M3735 1287C3735 1279.82 3740.6 1274 3747.5 1274 3754.4 1274 3760 1279.82 3760 1287 3760 1294.18 3754.4 1300 3747.5 1300 3740.6 1300 3735 1294.18 3735 1287Z" fill="#FFFFFF" fill-rule="evenodd"/><path d="M3624 1187C3624 1179.82 3629.82 1174 3637 1174 3644.18 1174 3650 1179.82 3650 1187 3650 1194.18 3644.18 1200 3637 1200 3629.82 1200 3624 1194.18 3624 1187Z" fill="#FFFFFF" fill-rule="evenodd"/><path d="M3735 1187C3735 1179.82 3740.6 1174 3747.5 1174 3754.4 1174 3760 1179.82 3760 1187 3760 1194.18 3754.4 1200 3747.5 1200 3740.6 1200 3735 1194.18 3735 1187Z" fill="#FFFFFF" fill-rule="evenodd"/><path d="M3561 1136C3561 1128.82 3566.82 1123 3574 1123 3581.18 1123 3587 1128.82 3587 1136 3587 1143.18 3581.18 1149 3574 1149 3566.82 1149 3561 1143.18 3561 1136Z" fill="#FFFFFF" fill-rule="evenodd"/><path d="M3540 1200C3540 1192.82 3545.82 1187 3553 1187 3560.18 1187 3566 1192.82 3566 1200 3566 1207.18 3560.18 1213 3553 1213 3545.82 1213 3540 1207.18 3540 1200Z" fill="#FFFFFF" fill-rule="evenodd"/><path d="M3521 1285C3521 1277.82 3526.82 1272 3534 1272 3541.18 1272 3547 1277.82 3547 1285 3547 1292.18 3541.18 1298 3534 1298 3526.82 1298 3521 1292.18 3521 1285Z" fill="#FFFFFF" fill-rule="evenodd"/><path d="M3564 1316C3564 1308.82 3569.82 1303 3577 1303 3584.18 1303 3590 1308.82 3590 1316 3590 1323.18 3584.18 1329 3577 1329 3569.82 1329 3564 1323.18 3564 1316Z" fill="#FFFFFF" fill-rule="evenodd"/><path d="M3617 1350C3617 1342.82 3622.82 1337 3630 1337 3637.18 1337 3643 1342.82 3643 1350 3643 1357.18 3637.18 1363 3630 1363 3622.82 1363 3617 1357.18 3617 1350Z" fill="#FFFFFF" fill-rule="evenodd"/><path d="M3672 1376C3672 1368.82 3677.82 1363 3685 1363 3692.18 1363 3698 1368.82 3698 1376 3698 1383.18 3692.18 1389 3685 1389 3677.82 1389 3672 1383.18 3672 1376Z" fill="#FFFFFF" fill-rule="evenodd"/><path d="M3730 1324C3730 1316.82 3735.82 1311 3743 1311 3750.18 1311 3756 1316.82 3756 1324 3756 1331.18 3750.18 1337 3743 1337 3735.82 1337 3730 1331.18 3730 1324Z" fill="#FFFFFF" fill-rule="evenodd"/><path d="M3761 1353C3761 1345.82 3766.82 1340 3774 1340 3781.18 1340 3787 1345.82 3787 1353 3787 1360.18 3781.18 1366 3774 1366 3766.82 1366 3761 1360.18 3761 1353Z" fill="#FFFFFF" fill-rule="evenodd"/><path d="M3749 1133C3749 1125.82 3754.82 1120 3762 1120 3769.18 1120 3775 1125.82 3775 1133 3775 1140.18 3769.18 1146 3762 1146 3754.82 1146 3749 1140.18 3749 1133Z" fill="#FFFFFF" fill-rule="evenodd"/><path d="M3783 1138C3783 1130.82 3788.82 1125 3796 1125 3803.18 1125 3809 1130.82 3809 1138 3809 1145.18 3803.18 1151 3796 1151 3788.82 1151 3783 1145.18 3783 1138Z" fill="#FFFFFF" fill-rule="evenodd"/><path d="M3795 1079C3795 1071.82 3800.82 1066 3808 1066 3815.18 1066 3821 1071.82 3821 1079 3821 1086.18 3815.18 1092 3808 1092 3800.82 1092 3795 1086.18 3795 1079Z" fill="#FFFFFF" fill-rule="evenodd"/><path d="M3798 1018C3798 1010.82 3803.82 1005 3811 1005 3818.18 1005 3824 1010.82 3824 1018 3824 1025.18 3818.18 1031 3811 1031 3803.82 1031 3798 1025.18 3798 1018Z" fill="#FFFFFF" fill-rule="evenodd"/><path d="M3735 1060C3735 1052.82 3740.82 1047 3748 1047 3755.18 1047 3761 1052.82 3761 1060 3761 1067.18 3755.18 1073 3748 1073 3740.82 1073 3735 1067.18 3735 1060Z" fill="#FFFFFF" fill-rule="evenodd"/><path d="M3660 1021C3660 1013.82 3665.82 1008 3673 1008 3680.18 1008 3686 1013.82 3686 1021 3686 1028.18 3680.18 1034 3673 1034 3665.82 1034 3660 1028.18 3660 1021Z" fill="#FFFFFF" fill-rule="evenodd"/><path d="M3579 1042C3579 1034.82 3584.82 1029 3592 1029 3599.18 1029 3605 1034.82 3605 1042 3605 1049.18 3599.18 1055 3592 1055 3584.82 1055 3579 1049.18 3579 1042Z" fill="#FFFFFF" fill-rule="evenodd"/><path d="M3587 1076C3587 1068.82 3592.82 1063 3600 1063 3607.18 1063 3613 1068.82 3613 1076 3613 1083.18 3607.18 1089 3600 1089 3592.82 1089 3587 1083.18 3587 1076Z" fill="#FFFFFF" fill-rule="evenodd"/><path d="M3643 1112C3643 1104.82 3648.82 1099 3656 1099 3663.18 1099 3669 1104.82 3669 1112 3669 1119.18 3663.18 1125 3656 1125 3648.82 1125 3643 1119.18 3643 1112Z" fill="#FFFFFF" fill-rule="evenodd"/><path d="M3647 1156C3647 1148.82 3652.82 1143 3660 1143 3667.18 1143 3673 1148.82 3673 1156 3673 1163.18 3667.18 1169 3660 1169 3652.82 1169 3647 1163.18 3647 1156Z" fill="#FFFFFF" fill-rule="evenodd"/><path d="M3736 929C3736 921.82 3741.82 916 3749 916 3756.18 916 3762 921.82 3762 929 3762 936.18 3756.18 942 3749 942 3741.82 942 3736 936.18 3736 929Z" fill="#FFFFFF" fill-rule="evenodd"/><path d="M3798 928C3798 920.82 3803.82 915 3811 915 3818.18 915 3824 920.82 3824 928 3824 935.18 3818.18 941 3811 941 3803.82 941 3798 935.18 3798 928Z" fill="#FFFFFF" fill-rule="evenodd"/><path d="M3683 967C3683 959.82 3688.82 954 3696 954 3703.18 954 3709 959.82 3709 967 3709 974.18 3703.18 980 3696 980 3688.82 980 3683 974.18 3683 967Z" fill="#FFFFFF" fill-rule="evenodd"/><path d="M0 13.0001C-3.31016e-15 5.82033 5.82033 0 13.0001 0 20.1798-3.31016e-15 26.0001 5.82033 26.0001 13.0001 26.0001 20.1798 20.1798 26.0001 13.0001 26.0001 5.82033 26.0001-4.96525e-15 20.1798 0 13.0001Z" fill="#FFFFFF" fill-rule="evenodd" transform="matrix(-1 0 0 1 4038 1274)"/><path d="M0 13.0001C-3.31012e-15 5.82033 5.82025 0 12.9999 0 20.1795-3.31016e-15 25.9998 5.82033 25.9998 13.0001 25.9998 20.1798 20.1795 26.0001 12.9999 26.0001 5.82025 26.0001-4.96518e-15 20.1798 0 13.0001Z" fill="#FFFFFF" fill-rule="evenodd" transform="matrix(-1 0 0 1 3966 1274)"/><path d="M0 13.0001C-3.31012e-15 5.82033 5.82025 0 12.9999 0 20.1795-3.31016e-15 25.9998 5.82033 25.9998 13.0001 25.9998 20.1798 20.1795 26.0001 12.9999 26.0001 5.82025 26.0001-4.96518e-15 20.1798 0 13.0001Z" fill="#FFFFFF" fill-rule="evenodd" transform="matrix(-1 0 0 1 3966 1174)"/><path d="M0 13.0001C-3.31016e-15 5.82033 5.82033 0 13.0001 0 20.1798-3.31016e-15 26.0001 5.82033 26.0001 13.0001 26.0001 20.1798 20.1798 26.0001 13.0001 26.0001 5.82033 26.0001-4.96525e-15 20.1798 0 13.0001Z" fill="#FFFFFF" fill-rule="evenodd" transform="matrix(-1 0 0 1 4139 1123)"/><path d="M0 13.0001C-3.31016e-15 5.82033 5.82033 0 13.0001 0 20.1798-3.31016e-15 26.0001 5.82033 26.0001 13.0001 26.0001 20.1798 20.1798 26.0001 13.0001 26.0001 5.82033 26.0001-4.96525e-15 20.1798 0 13.0001Z" fill="#FFFFFF" fill-rule="evenodd" transform="matrix(-1 0 0 1 4160 1187)"/><path d="M0 13.0001C-3.31016e-15 5.82033 5.82033 0 13.0001 0 20.1798-3.31016e-15 26.0001 5.82033 26.0001 13.0001 26.0001 20.1798 20.1798 26.0001 13.0001 26.0001 5.82033 26.0001-4.96525e-15 20.1798 0 13.0001Z" fill="#FFFFFF" fill-rule="evenodd" transform="matrix(-1 0 0 1 4179 1272)"/><path d="M0 12.9999C-3.31016e-15 5.82025 5.82033 0 13.0001 0 20.1798-3.31012e-15 26.0001 5.82025 26.0001 12.9999 26.0001 20.1795 20.1798 25.9998 13.0001 25.9998 5.82033 25.9998-4.96525e-15 20.1795 0 12.9999Z" fill="#FFFFFF" fill-rule="evenodd" transform="matrix(-1 0 0 1 4136 1303)"/><path d="M0 13.0001C-3.31016e-15 5.82033 5.82033 0 13.0001 0 20.1798-3.31016e-15 26.0001 5.82033 26.0001 13.0001 26.0001 20.1798 20.1798 26.0001 13.0001 26.0001 5.82033 26.0001-4.96525e-15 20.1798 0 13.0001Z" fill="#FFFFFF" fill-rule="evenodd" transform="matrix(-1 0 0 1 4083 1337)"/><path d="M0 13.0001C-3.31016e-15 5.82033 5.82033 0 13.0001 0 20.1798-3.31016e-15 26.0001 5.82033 26.0001 13.0001 26.0001 20.1798 20.1798 26.0001 13.0001 26.0001 5.82033 26.0001-4.96525e-15 20.1798 0 13.0001Z" fill="#FFFFFF" fill-rule="evenodd" transform="matrix(-1 0 0 1 4028 1363)"/><path d="M0 12.9999C-3.31016e-15 5.82025 5.82033 0 13.0001 0 20.1798-3.31012e-15 26.0001 5.82025 26.0001 12.9999 26.0001 20.1795 20.1798 25.9998 13.0001 25.9998 5.82033 25.9998-4.96525e-15 20.1795 0 12.9999Z" fill="#FFFFFF" fill-rule="evenodd" transform="matrix(-1 0 0 1 3970 1311)"/><path d="M0 13.0001C-3.31016e-15 5.82033 5.82033 0 13.0001 0 20.1798-3.31016e-15 26.0001 5.82033 26.0001 13.0001 26.0001 20.1798 20.1798 26.0001 13.0001 26.0001 5.82033 26.0001-4.96525e-15 20.1798 0 13.0001Z" fill="#FFFFFF" fill-rule="evenodd" transform="matrix(-1 0 0 1 3939 1340)"/><path d="M0 13.0001C-3.31016e-15 5.82033 5.82033 0 13.0001 0 20.1798-3.31016e-15 26.0001 5.82033 26.0001 13.0001 26.0001 20.1798 20.1798 26.0001 13.0001 26.0001 5.82033 26.0001-4.96525e-15 20.1798 0 13.0001Z" fill="#FFFFFF" fill-rule="evenodd" transform="matrix(-1 0 0 1 3951 1120)"/><path d="M0 12.9999C-3.31016e-15 5.82025 5.82033 0 13.0001 0 20.1798-3.31012e-15 26.0001 5.82025 26.0001 12.9999 26.0001 20.1795 20.1798 25.9998 13.0001 25.9998 5.82033 25.9998-4.96525e-15 20.1795 0 12.9999Z" fill="#FFFFFF" fill-rule="evenodd" transform="matrix(-1 0 0 1 3916 1125)"/><path d="M0 13.0001C-3.31016e-15 5.82033 5.82033 0 13.0001 0 20.1798-3.31016e-15 26.0001 5.82033 26.0001 13.0001 26.0001 20.1798 20.1798 26.0001 13.0001 26.0001 5.82033 26.0001-4.96525e-15 20.1798 0 13.0001Z" fill="#FFFFFF" fill-rule="evenodd" transform="matrix(-1 0 0 1 3905 1066)"/><path d="M0 12.9999C-3.31012e-15 5.82025 5.82025 0 12.9999 0 20.1795-3.31012e-15 25.9998 5.82025 25.9998 12.9999 25.9998 20.1795 20.1795 25.9998 12.9999 25.9998 5.82025 25.9998-4.96518e-15 20.1795 0 12.9999Z" fill="#FFFFFF" fill-rule="evenodd" transform="matrix(-1 0 0 1 3902 1005)"/><path d="M0 12.9999C-3.31016e-15 5.82025 5.82033 0 13.0001 0 20.1798-3.31012e-15 26.0001 5.82025 26.0001 12.9999 26.0001 20.1795 20.1798 25.9998 13.0001 25.9998 5.82033 25.9998-4.96525e-15 20.1795 0 12.9999Z" fill="#FFFFFF" fill-rule="evenodd" transform="matrix(-1 0 0 1 3965 1047)"/><path d="M0 13.0001C-3.31016e-15 5.82033 5.82033 0 13.0001 0 20.1798-3.31016e-15 26.0001 5.82033 26.0001 13.0001 26.0001 20.1798 20.1798 26.0001 13.0001 26.0001 5.82033 26.0001-4.96525e-15 20.1798 0 13.0001Z" fill="#FFFFFF" fill-rule="evenodd" transform="matrix(-1 0 0 1 4040 1008)"/><path d="M0 13.0001C-3.31012e-15 5.82033 5.82025 0 12.9999 0 20.1795-3.31016e-15 25.9998 5.82033 25.9998 13.0001 25.9998 20.1798 20.1795 26.0001 12.9999 26.0001 5.82025 26.0001-4.96518e-15 20.1798 0 13.0001Z" fill="#FFFFFF" fill-rule="evenodd" transform="matrix(-1 0 0 1 4121 1029)"/><path d="M0 13.0001C-3.31016e-15 5.82033 5.82033 0 13.0001 0 20.1798-3.31016e-15 26.0001 5.82033 26.0001 13.0001 26.0001 20.1798 20.1798 26.0001 13.0001 26.0001 5.82033 26.0001-4.96525e-15 20.1798 0 13.0001Z" fill="#FFFFFF" fill-rule="evenodd" transform="matrix(-1 0 0 1 4113 1063)"/><path d="M0 13.0001C-3.31012e-15 5.82033 5.82025 0 12.9999 0 20.1795-3.31016e-15 25.9998 5.82033 25.9998 13.0001 25.9998 20.1798 20.1795 26.0001 12.9999 26.0001 5.82025 26.0001-4.96518e-15 20.1798 0 13.0001Z" fill="#FFFFFF" fill-rule="evenodd" transform="matrix(-1 0 0 1 4057 1099)"/><path d="M0 13.0001C-3.31016e-15 5.82033 5.82033 0 13.0001 0 20.1798-3.31016e-15 26.0001 5.82033 26.0001 13.0001 26.0001 20.1798 20.1798 26.0001 13.0001 26.0001 5.82033 26.0001-4.96525e-15 20.1798 0 13.0001Z" fill="#FFFFFF" fill-rule="evenodd" transform="matrix(-1 0 0 1 4053 1143)"/><path d="M0 12.9999C-3.31016e-15 5.82025 5.82033 0 13.0001 0 20.1798-3.31012e-15 26.0001 5.82025 26.0001 12.9999 26.0001 20.1795 20.1798 25.9998 13.0001 25.9998 5.82033 25.9998-4.96525e-15 20.1795 0 12.9999Z" fill="#FFFFFF" fill-rule="evenodd" transform="matrix(-1 0 0 1 3964 916)"/><path d="M0 12.9999C-3.31012e-15 5.82025 5.82025 0 12.9999 0 20.1795-3.31012e-15 25.9998 5.82025 25.9998 12.9999 25.9998 20.1795 20.1795 25.9998 12.9999 25.9998 5.82025 25.9998-4.96518e-15 20.1795 0 12.9999Z" fill="#FFFFFF" fill-rule="evenodd" transform="matrix(-1 0 0 1 3902 915)"/><path d="M3996 967C3996 959.82 4001.82 954 4009 954 4016.18 954 4022 959.82 4022 967 4022 974.18 4016.18 980 4009 980 4001.82 980 3996 974.18 3996 967Z" fill="#FFFFFF" fill-rule="evenodd"/><path d="M3999 1233C3999 1225.82 4004.82 1220 4012 1220 4019.18 1220 4025 1225.82 4025 1233 4025 1240.18 4019.18 1246 4012 1246 4004.82 1246 3999 1240.18 3999 1233Z" fill="#FFFFFF" fill-rule="evenodd"/><path d="M3692.5 1528.5 4008.5 1528.5 4008.4 1528.56C3961.46 1554.03 3907.67 1568.5 3850.5 1568.5 3793.33 1568.5 3739.54 1554.03 3692.6 1528.56Z" stroke="#FFFFFF" stroke-width="0" stroke-miterlimit="8" fill="#FFFFFF" fill-rule="evenodd"/></g></svg>