<svg width="733" height="733" xmlns="http://www.w3.org/2000/svg" xmlns:xlink="http://www.w3.org/1999/xlink" overflow="hidden"><defs><clipPath id="clip0"><rect x="1283" y="871" width="733" height="733"/></clipPath></defs><g clip-path="url(#clip0)" transform="translate(-1283 -871)"><path d="M0 0 0.000360892 207.874" stroke="#F2F2F2" stroke-width="18.3333" stroke-linecap="round" stroke-miterlimit="8" fill="#D9D9D9" fill-rule="evenodd" transform="matrix(1 0 0 -1 1650 1554.87)"/><path d="M1453 1114 1649.62 1346.38" stroke="#F2F2F2" stroke-width="18.3333" stroke-linecap="round" stroke-miterlimit="8" fill="#D9D9D9" fill-rule="evenodd"/><path d="M0 0 67.375 13.0795" stroke="#F2F2F2" stroke-width="18.3333" stroke-linecap="round" stroke-miterlimit="8" fill="#D9D9D9" fill-rule="evenodd" transform="matrix(1 0 0 -1 1437 1189.08)"/><path d="M0 0 66.7579 81.9969" stroke="#F2F2F2" stroke-width="18.3333" stroke-linecap="round" stroke-miterlimit="8" fill="#D9D9D9" fill-rule="evenodd" transform="matrix(1 0 0 -1 1479 1145)"/><path d="M0 0 6.25787 19.0927" stroke="#F2F2F2" stroke-width="18.3333" stroke-linecap="round" stroke-miterlimit="8" fill="#D9D9D9" fill-rule="evenodd" transform="matrix(1 0 0 -1 1540 1213.09)"/><path d="M0 0 35.75 19.9375" stroke="#F2F2F2" stroke-width="18.3333" stroke-linecap="round" stroke-miterlimit="8" fill="#D9D9D9" fill-rule="evenodd" transform="matrix(1 0 0 -1 1548 1287.94)"/><path d="M1438 1283 1546.62 1288.5" stroke="#F2F2F2" stroke-width="18.3333" stroke-linecap="round" stroke-miterlimit="8" fill="#D9D9D9" fill-rule="evenodd"/><path d="M1507.82 1285.5 1494 1236" stroke="#F2F2F2" stroke-width="18.3333" stroke-linecap="round" stroke-miterlimit="8" fill="#D9D9D9" fill-rule="evenodd"/><path d="M0 0 74.5939 10.6106" stroke="#F2F2F2" stroke-width="18.3333" stroke-linecap="round" stroke-miterlimit="8" fill="#D9D9D9" fill-rule="evenodd" transform="matrix(1 0 0 -1 1529 1089.61)"/><path d="M0 0 23.4454 26.1254" stroke="#F2F2F2" stroke-width="18.3333" stroke-linecap="round" stroke-miterlimit="8" fill="#D9D9D9" fill-rule="evenodd" transform="matrix(1 0 0 -1 1566 1236.13)"/><path d="M1589.78 1209.56 1563 1136" stroke="#F2F2F2" stroke-width="18.3333" stroke-linecap="round" stroke-miterlimit="8" fill="#D9D9D9" fill-rule="evenodd"/><path d="M0 0 15.6977 29.4878" stroke="#F2F2F2" stroke-width="18.3333" stroke-linecap="round" stroke-miterlimit="8" fill="#D9D9D9" fill-rule="evenodd" transform="matrix(1 0 0 -1 1576 1170.49)"/><path d="M1469.93 1180.44 1460 1164" stroke="#F2F2F2" stroke-width="18.3333" stroke-linecap="round" stroke-miterlimit="8" fill="#D9D9D9" fill-rule="evenodd"/><path d="M0 0 51.7386 62.7422" stroke="#F2F2F2" stroke-width="18.3333" stroke-linecap="round" stroke-miterlimit="8" fill="#D9D9D9" fill-rule="evenodd" transform="matrix(-1 0 0 1 1481.74 1287)"/><path d="M1450 1329 1484.29 1370.76" stroke="#F2F2F2" stroke-width="18.3333" stroke-linecap="round" stroke-miterlimit="8" fill="#D9D9D9" fill-rule="evenodd"/><path d="M0 0 36.9839 50.4275" stroke="#F2F2F2" stroke-width="18.3333" stroke-linecap="round" stroke-miterlimit="8" fill="#D9D9D9" fill-rule="evenodd" transform="matrix(-1 0 0 1 1610.98 1301)"/><path d="M1589.07 1329.06 1544 1325" stroke="#F2F2F2" stroke-width="18.3333" stroke-linecap="round" stroke-miterlimit="8" fill="#D9D9D9" fill-rule="evenodd"/><path d="M1470.17 1283.18 1355 1201" stroke="#F2F2F2" stroke-width="18.3333" stroke-linecap="round" stroke-miterlimit="8" fill="#D9D9D9" fill-rule="evenodd"/><path d="M0 0 32.7434 64.0209" stroke="#F2F2F2" stroke-width="18.3333" stroke-linecap="round" stroke-miterlimit="8" fill="#D9D9D9" fill-rule="evenodd" transform="matrix(1 0 0 -1 1378 1211.02)"/><path d="M1395.39 1170.9 1375 1136" stroke="#F2F2F2" stroke-width="18.3333" stroke-linecap="round" stroke-miterlimit="8" fill="#D9D9D9" fill-rule="evenodd"/><path d="M0 0 71.4105 43.7827" stroke="#F2F2F2" stroke-width="18.3333" stroke-linecap="round" stroke-miterlimit="8" fill="#D9D9D9" fill-rule="evenodd" transform="matrix(-1 0 0 1 1408.41 1240)"/><path d="M1373 1264 1377.64 1315.93" stroke="#F2F2F2" stroke-width="18.3333" stroke-linecap="round" stroke-miterlimit="8" fill="#D9D9D9" fill-rule="evenodd"/><path d="M1512.25 1103.92 1470 1021" stroke="#F2F2F2" stroke-width="18.3333" stroke-linecap="round" stroke-miterlimit="8" fill="#D9D9D9" fill-rule="evenodd"/><path d="M1484.51 1049.86 1394 1043" stroke="#F2F2F2" stroke-width="18.3333" stroke-linecap="round" stroke-miterlimit="8" fill="#D9D9D9" fill-rule="evenodd"/><path d="M0 0 30.7968 30.3471" stroke="#F2F2F2" stroke-width="18.3333" stroke-linecap="round" stroke-miterlimit="8" fill="#D9D9D9" fill-rule="evenodd" transform="matrix(-1 0 0 1 1429.8 1048)"/><path d="M1583.82 1080.49 1550 934" stroke="#F2F2F2" stroke-width="18.3333" stroke-linecap="round" stroke-miterlimit="8" fill="#D9D9D9" fill-rule="evenodd"/><path d="M0 0 34.6309 24.8792" stroke="#F2F2F2" stroke-width="18.3333" stroke-linecap="round" stroke-miterlimit="8" fill="#D9D9D9" fill-rule="evenodd" transform="matrix(1 0 0 -1 1576 1045.88)"/><path d="M1562.23 992.344 1492 967" stroke="#F2F2F2" stroke-width="18.3333" stroke-linecap="round" stroke-miterlimit="8" fill="#D9D9D9" fill-rule="evenodd"/><path d="M0 0 38.8984 26.5967" stroke="#F2F2F2" stroke-width="18.3333" stroke-linecap="round" stroke-miterlimit="8" fill="#D9D9D9" fill-rule="evenodd" transform="matrix(1 0 0 -1 1565 954.597)"/><path d="M0 0 196.625 232.375" stroke="#F2F2F2" stroke-width="18.3333" stroke-linecap="round" stroke-miterlimit="8" fill="#D9D9D9" fill-rule="evenodd" transform="matrix(-1 0 0 1 1846.62 1114)"/><path d="M1862.38 1189.08 1795 1176" stroke="#F2F2F2" stroke-width="18.3333" stroke-linecap="round" stroke-miterlimit="8" fill="#D9D9D9" fill-rule="evenodd"/><path d="M1819.76 1145 1753 1063" stroke="#F2F2F2" stroke-width="18.3333" stroke-linecap="round" stroke-miterlimit="8" fill="#D9D9D9" fill-rule="evenodd"/><path d="M1759.26 1213.09 1753 1194" stroke="#F2F2F2" stroke-width="18.3333" stroke-linecap="round" stroke-miterlimit="8" fill="#D9D9D9" fill-rule="evenodd"/><path d="M1751.75 1287.94 1716 1268" stroke="#F2F2F2" stroke-width="18.3333" stroke-linecap="round" stroke-miterlimit="8" fill="#D9D9D9" fill-rule="evenodd"/><path d="M0 0 71.7923 3.63491" stroke="#F2F2F2" stroke-width="18.3333" stroke-linecap="round" stroke-miterlimit="8" fill="#D9D9D9" fill-rule="evenodd" transform="matrix(-1 0 0 1 1824.79 1284)"/><path d="M0 0 13.8204 49.5004" stroke="#F2F2F2" stroke-width="18.3333" stroke-linecap="round" stroke-miterlimit="8" fill="#D9D9D9" fill-rule="evenodd" transform="matrix(1 0 0 -1 1791 1285.5)"/><path d="M1770.59 1089.61 1696 1079" stroke="#F2F2F2" stroke-width="18.3333" stroke-linecap="round" stroke-miterlimit="8" fill="#D9D9D9" fill-rule="evenodd"/><path d="M1733.45 1236.13 1710 1210" stroke="#F2F2F2" stroke-width="18.3333" stroke-linecap="round" stroke-miterlimit="8" fill="#D9D9D9" fill-rule="evenodd"/><path d="M0 0 26.7771 73.5621" stroke="#F2F2F2" stroke-width="18.3333" stroke-linecap="round" stroke-miterlimit="8" fill="#D9D9D9" fill-rule="evenodd" transform="matrix(1 0 0 -1 1710 1209.56)"/><path d="M1723.7 1170.49 1708 1141" stroke="#F2F2F2" stroke-width="18.3333" stroke-linecap="round" stroke-miterlimit="8" fill="#D9D9D9" fill-rule="evenodd"/><path d="M0 0 9.93356 16.4433" stroke="#F2F2F2" stroke-width="18.3333" stroke-linecap="round" stroke-miterlimit="8" fill="#D9D9D9" fill-rule="evenodd" transform="matrix(1 0 0 -1 1829 1180.44)"/><path d="M1818 1287 1869.74 1349.74" stroke="#F2F2F2" stroke-width="18.3333" stroke-linecap="round" stroke-miterlimit="8" fill="#D9D9D9" fill-rule="evenodd"/><path d="M0 0 34.2859 41.7596" stroke="#F2F2F2" stroke-width="18.3333" stroke-linecap="round" stroke-miterlimit="8" fill="#D9D9D9" fill-rule="evenodd" transform="matrix(-1 0 0 1 1849.29 1329)"/><path d="M1689 1301 1725.98 1351.43" stroke="#F2F2F2" stroke-width="18.3333" stroke-linecap="round" stroke-miterlimit="8" fill="#D9D9D9" fill-rule="evenodd"/><path d="M0 0 45.0664 4.05679" stroke="#F2F2F2" stroke-width="18.3333" stroke-linecap="round" stroke-miterlimit="8" fill="#D9D9D9" fill-rule="evenodd" transform="matrix(1 0 0 -1 1710 1329.06)"/><path d="M0 0 115.171 82.1781" stroke="#F2F2F2" stroke-width="18.3333" stroke-linecap="round" stroke-miterlimit="8" fill="#D9D9D9" fill-rule="evenodd" transform="matrix(1 0 0 -1 1829 1283.18)"/><path d="M1921.74 1211.02 1889 1147" stroke="#F2F2F2" stroke-width="18.3333" stroke-linecap="round" stroke-miterlimit="8" fill="#D9D9D9" fill-rule="evenodd"/><path d="M0 0 20.3944 34.9005" stroke="#F2F2F2" stroke-width="18.3333" stroke-linecap="round" stroke-miterlimit="8" fill="#D9D9D9" fill-rule="evenodd" transform="matrix(1 0 0 -1 1904 1170.9)"/><path d="M1891 1240 1962.41 1283.78" stroke="#F2F2F2" stroke-width="18.3333" stroke-linecap="round" stroke-miterlimit="8" fill="#D9D9D9" fill-rule="evenodd"/><path d="M0 0 4.64324 51.9299" stroke="#F2F2F2" stroke-width="18.3333" stroke-linecap="round" stroke-miterlimit="8" fill="#D9D9D9" fill-rule="evenodd" transform="matrix(-1 0 0 1 1926.64 1264)"/><path d="M0 0 42.2461 82.9215" stroke="#F2F2F2" stroke-width="18.3333" stroke-linecap="round" stroke-miterlimit="8" fill="#D9D9D9" fill-rule="evenodd" transform="matrix(1 0 0 -1 1787 1103.92)"/><path d="M0 0 90.5078 6.8602" stroke="#F2F2F2" stroke-width="18.3333" stroke-linecap="round" stroke-miterlimit="8" fill="#D9D9D9" fill-rule="evenodd" transform="matrix(1 0 0 -1 1815 1049.86)"/><path d="M1870 1048 1900.8 1078.35" stroke="#F2F2F2" stroke-width="18.3333" stroke-linecap="round" stroke-miterlimit="8" fill="#D9D9D9" fill-rule="evenodd"/><path d="M0 0 33.816 146.495" stroke="#F2F2F2" stroke-width="18.3333" stroke-linecap="round" stroke-miterlimit="8" fill="#D9D9D9" fill-rule="evenodd" transform="matrix(1 0 0 -1 1716 1080.49)"/><path d="M1723.63 1045.88 1689 1021" stroke="#F2F2F2" stroke-width="18.3333" stroke-linecap="round" stroke-miterlimit="8" fill="#D9D9D9" fill-rule="evenodd"/><path d="M0 0 70.2304 25.3444" stroke="#F2F2F2" stroke-width="18.3333" stroke-linecap="round" stroke-miterlimit="8" fill="#D9D9D9" fill-rule="evenodd" transform="matrix(1 0 0 -1 1737 992.344)"/><path d="M1734.9 954.597 1696 928" stroke="#F2F2F2" stroke-width="18.3333" stroke-linecap="round" stroke-miterlimit="8" fill="#D9D9D9" fill-rule="evenodd"/><path d="M0 0 0.000360892 73.8007" stroke="#000000" stroke-width="13.75" stroke-linecap="round" stroke-miterlimit="8" fill="none" fill-rule="evenodd" transform="matrix(1 0 0 -1 1437 1273.8)"/><path d="M1482.7 1223.55 1446 1196" stroke="#000000" stroke-width="13.75" stroke-linecap="round" stroke-miterlimit="8" fill="none" fill-rule="evenodd"/><path d="M0 0 36.6966 27.548" stroke="#000000" stroke-width="13.75" stroke-linecap="round" stroke-miterlimit="8" fill="none" fill-rule="evenodd" transform="matrix(-1 0 0 1 1537.7 1196)"/><path d="M1547 1200 1547 1273.8" stroke="#000000" stroke-width="13.75" stroke-linecap="round" stroke-miterlimit="8" fill="none" fill-rule="evenodd"/><path d="M0 0 40.4611 33.1025" stroke="#4472C4" stroke-width="4.58333" stroke-linecap="round" stroke-miterlimit="8" fill="none" fill-rule="evenodd" transform="matrix(-1 0 0 1 1601.96 1027.5)"/><path d="M1752 1200 1752 1273.8" stroke="#000000" stroke-width="13.75" stroke-linecap="round" stroke-miterlimit="8" fill="none" fill-rule="evenodd"/><path d="M0 0 46.7031 0.000360892" stroke="#000000" stroke-width="13.75" stroke-linecap="round" stroke-miterlimit="8" fill="none" fill-rule="evenodd" transform="matrix(-1 0 0 1 1811.7 1287)"/><path d="M1713.5 1147.5 1744.15 1178.23" stroke="#000000" stroke-width="4.58333" stroke-linecap="round" stroke-miterlimit="8" fill="none" fill-rule="evenodd"/><path d="M0 0 72.9511 56.2584" stroke="#000000" stroke-width="4.58333" stroke-linecap="round" stroke-miterlimit="8" fill="none" fill-rule="evenodd" transform="matrix(-1 0 0 1 1835.45 1121.5)"/><path d="M0 0 14.2473 47.0145" stroke="#000000" stroke-width="4.58333" stroke-linecap="round" stroke-miterlimit="8" fill="none" fill-rule="evenodd" transform="matrix(-1 0 0 1 1751.75 1073.5)"/><path d="M0 0 34.0794 18.4716" stroke="#000000" stroke-width="4.58333" stroke-linecap="round" stroke-miterlimit="8" fill="none" fill-rule="evenodd" transform="matrix(1 0 0 -1 1705.5 1078.97)"/><path d="M1890.95 1067.27 1836.5 1030.5" stroke="#000000" stroke-width="4.58333" stroke-linecap="round" stroke-miterlimit="8" fill="none" fill-rule="evenodd"/><path d="M1765.5 1060.5 1835.37 1103.26" stroke="#000000" stroke-width="4.58333" stroke-linecap="round" stroke-miterlimit="8" fill="none" fill-rule="evenodd"/><path d="M1900.5 1089.5 1916.87 1126.49" stroke="#000000" stroke-width="4.58333" stroke-linecap="round" stroke-miterlimit="8" fill="none" fill-rule="evenodd"/><path d="M0 0 7.70397 8.76211" stroke="#000000" stroke-width="4.58333" stroke-linecap="round" stroke-miterlimit="8" fill="none" fill-rule="evenodd" transform="matrix(-1 0 0 1 1908.2 1055.5)"/><path d="M1857.5 1112.5 1913.29 1135.74" stroke="#000000" stroke-width="4.58333" stroke-linecap="round" stroke-miterlimit="8" fill="none" fill-rule="evenodd"/><path d="M1925.5 1149.5 1947.11 1187.68" stroke="#000000" stroke-width="4.58333" stroke-linecap="round" stroke-miterlimit="8" fill="none" fill-rule="evenodd"/><path d="M1834.5 1296.5 1909.92 1316.66" stroke="#000000" stroke-width="4.58333" stroke-linecap="round" stroke-miterlimit="8" fill="none" fill-rule="evenodd"/><path d="M0 0 20.7892 21.5402" stroke="#000000" stroke-width="4.58333" stroke-linecap="round" stroke-miterlimit="8" fill="none" fill-rule="evenodd" transform="matrix(1 0 0 -1 1932.5 1307.04)"/><path d="M0 0 0.891043 66.6157" stroke="#000000" stroke-width="4.58333" stroke-linecap="round" stroke-miterlimit="8" fill="none" fill-rule="evenodd" transform="matrix(-1 0 0 1 1816.39 1296.5)"/><path d="M0 0 32.4468 16.5577" stroke="#000000" stroke-width="4.58333" stroke-linecap="round" stroke-miterlimit="8" fill="none" fill-rule="evenodd" transform="matrix(1 0 0 -1 1828.5 1376.06)"/><path d="M1752.5 1300.5 1756.95 1311.58" stroke="#000000" stroke-width="4.58333" stroke-linecap="round" stroke-miterlimit="8" fill="none" fill-rule="evenodd"/><path d="M1703.5 1151.5 1725.82 1340.94" stroke="#000000" stroke-width="4.58333" stroke-linecap="round" stroke-miterlimit="8" fill="none" fill-rule="evenodd"/><path d="M1849.5 1166.5 1922.89 1303.95" stroke="#000000" stroke-width="4.58333" stroke-linecap="round" stroke-miterlimit="8" fill="none" fill-rule="evenodd"/><path d="M0 0 43.1584 70.3249" stroke="#000000" stroke-width="4.58333" stroke-linecap="round" stroke-miterlimit="8" fill="none" fill-rule="evenodd" transform="matrix(1 0 0 -1 1698.5 1009.82)"/><path d="M1702.5 1018.5 1814.6 1021.66" stroke="#000000" stroke-width="4.58333" stroke-linecap="round" stroke-miterlimit="8" fill="none" fill-rule="evenodd"/><path d="M1760.5 939.5 1800.07 958.838" stroke="#000000" stroke-width="4.58333" stroke-linecap="round" stroke-miterlimit="8" fill="none" fill-rule="evenodd"/><path d="M0 0 0.000360892 64.3038" stroke="#000000" stroke-width="4.58333" stroke-linecap="round" stroke-miterlimit="8" fill="none" fill-rule="evenodd" transform="matrix(1 0 0 -1 1689.5 1005.8)"/><path d="M0 0 18.6964 54.197" stroke="#000000" stroke-width="4.58333" stroke-linecap="round" stroke-miterlimit="8" fill="none" fill-rule="evenodd" transform="matrix(1 0 0 -1 1812.5 1220.7)"/><path d="M1292 1237.5C1292 1040.06 1452.06 880 1649.5 880 1846.94 880 2007 1040.06 2007 1237.5 2007 1434.94 1846.94 1595 1649.5 1595 1452.06 1595 1292 1434.94 1292 1237.5Z" stroke="#767171" stroke-width="18.3333" stroke-miterlimit="8" fill="none" fill-rule="evenodd"/><path d="M0 0 84.9887 80.0261" stroke="#000000" stroke-width="4.58333" stroke-linecap="round" stroke-miterlimit="8" fill="none" fill-rule="evenodd" transform="matrix(-1 0 0 1 1428.49 1196.5)"/><path d="M1368.09 1307.85 1343.5 1295.5" stroke="#000000" stroke-width="4.58333" stroke-linecap="round" stroke-miterlimit="8" fill="none" fill-rule="evenodd"/><path d="M0 0 7.34777 37.0658" stroke="#000000" stroke-width="4.58333" stroke-linecap="round" stroke-miterlimit="8" fill="none" fill-rule="evenodd" transform="matrix(1 0 0 -1 1430.5 1337.57)"/><path d="M1529.95 1324.57 1450.5 1287.5" stroke="#000000" stroke-width="4.58333" stroke-linecap="round" stroke-miterlimit="8" fill="none" fill-rule="evenodd"/><path d="M0 0 39.7812 33.3551" stroke="#000000" stroke-width="4.58333" stroke-linecap="round" stroke-miterlimit="8" fill="none" fill-rule="evenodd" transform="matrix(1 0 0 -1 1494.5 1366.85)"/><path d="M1565.29 1344.6 1552.5 1333.5" stroke="#000000" stroke-width="4.58333" stroke-linecap="round" stroke-miterlimit="8" fill="none" fill-rule="evenodd"/><path d="M0 0 85.0162 69.0301" stroke="#000000" stroke-width="4.58333" stroke-linecap="round" stroke-miterlimit="8" fill="none" fill-rule="evenodd" transform="matrix(-1 0 0 1 1447.52 1121.5)"/><path d="M0 0 59.5985 14.0492" stroke="#000000" stroke-width="4.58333" stroke-linecap="round" stroke-miterlimit="8" fill="none" fill-rule="evenodd" transform="matrix(-1 0 0 1 1443.1 1112.5)"/><path d="M0 0 16.3708 36.9897" stroke="#000000" stroke-width="4.58333" stroke-linecap="round" stroke-miterlimit="8" fill="none" fill-rule="evenodd" transform="matrix(1 0 0 -1 1374.5 1123.49)"/><path d="M0 0 76.6882 23.0718" stroke="#000000" stroke-width="4.58333" stroke-linecap="round" stroke-miterlimit="8" fill="none" fill-rule="evenodd" transform="matrix(-1 0 0 1 1549.19 1133.5)"/><path d="M0 0 14.719 27.5935" stroke="#000000" stroke-width="4.58333" stroke-linecap="round" stroke-miterlimit="8" fill="none" fill-rule="evenodd" transform="matrix(-1 0 0 1 1562.22 1146.5)"/><path d="M0 0 39.5856 126.709" stroke="#000000" stroke-width="4.58333" stroke-linecap="round" stroke-miterlimit="8" fill="none" fill-rule="evenodd" transform="matrix(1 0 0 -1 1557.5 1278.21)"/><path d="M1562.75 1120.51 1548.5 1073.5" stroke="#000000" stroke-width="4.58333" stroke-linecap="round" stroke-miterlimit="8" fill="none" fill-rule="evenodd"/><path d="M0 0 27.4426 36.1535" stroke="#000000" stroke-width="4.58333" stroke-linecap="round" stroke-miterlimit="8" fill="none" fill-rule="evenodd" transform="matrix(1 0 0 -1 1571.5 1124.65)"/><path d="M1553.35 1124.86 1401.5 1051.5" stroke="#000000" stroke-width="4.58333" stroke-linecap="round" stroke-miterlimit="8" fill="none" fill-rule="evenodd"/><path d="M0 0 58.3502 11.2079" stroke="#000000" stroke-width="4.58333" stroke-linecap="round" stroke-miterlimit="8" fill="none" fill-rule="evenodd" transform="matrix(-1 0 0 1 1459.85 1021.5)"/><path d="M1505.5 976.5 1538.96 1051.45" stroke="#000000" stroke-width="4.58333" stroke-linecap="round" stroke-miterlimit="8" fill="none" fill-rule="evenodd"/><path d="M0 0 40.4611 33.1025" stroke="#000000" stroke-width="4.58333" stroke-linecap="round" stroke-miterlimit="8" fill="none" fill-rule="evenodd" transform="matrix(-1 0 0 1 1601.96 1027.5)"/><path d="M0 0 1.10794 105.004" stroke="#000000" stroke-width="4.58333" stroke-linecap="round" stroke-miterlimit="8" fill="none" fill-rule="evenodd" transform="matrix(-1 0 0 1 1549.61 942.5)"/><path d="M0 0 35.5479 1.58937" stroke="#000000" stroke-width="4.58333" stroke-linecap="round" stroke-miterlimit="8" fill="none" fill-rule="evenodd" transform="matrix(1 0 0 -1 1562.5 930.089)"/><path d="M1460.12 1143.64 1456.5 1125.5" stroke="#000000" stroke-width="4.58333" stroke-linecap="round" stroke-miterlimit="8" fill="none" fill-rule="evenodd"/><path d="M1424 1287C1424 1279.82 1429.82 1274 1437 1274 1444.18 1274 1450 1279.82 1450 1287 1450 1294.18 1444.18 1300 1437 1300 1429.82 1300 1424 1294.18 1424 1287Z" fill-rule="evenodd"/><path d="M1479 1233C1479 1225.82 1484.82 1220 1492 1220 1499.18 1220 1505 1225.82 1505 1233 1505 1240.18 1499.18 1246 1492 1246 1484.82 1246 1479 1240.18 1479 1233Z" fill-rule="evenodd"/><path d="M1534 1287C1534 1279.82 1539.82 1274 1547 1274 1554.18 1274 1560 1279.82 1560 1287 1560 1294.18 1554.18 1300 1547 1300 1539.82 1300 1534 1294.18 1534 1287Z" fill-rule="evenodd"/><path d="M1424 1187C1424 1179.82 1429.82 1174 1437 1174 1444.18 1174 1450 1179.82 1450 1187 1450 1194.18 1444.18 1200 1437 1200 1429.82 1200 1424 1194.18 1424 1187Z" fill-rule="evenodd"/><path d="M1534 1187C1534 1179.82 1539.82 1174 1547 1174 1554.18 1174 1560 1179.82 1560 1187 1560 1194.18 1554.18 1200 1547 1200 1539.82 1200 1534 1194.18 1534 1187Z" fill-rule="evenodd"/><path d="M1361 1136C1361 1128.82 1366.82 1123 1374 1123 1381.18 1123 1387 1128.82 1387 1136 1387 1143.18 1381.18 1149 1374 1149 1366.82 1149 1361 1143.18 1361 1136Z" fill-rule="evenodd"/><path d="M1339 1200C1339 1192.82 1344.82 1187 1352 1187 1359.18 1187 1365 1192.82 1365 1200 1365 1207.18 1359.18 1213 1352 1213 1344.82 1213 1339 1207.18 1339 1200Z" fill-rule="evenodd"/><path d="M1321 1285C1321 1277.82 1326.82 1272 1334 1272 1341.18 1272 1347 1277.82 1347 1285 1347 1292.18 1341.18 1298 1334 1298 1326.82 1298 1321 1292.18 1321 1285Z" fill-rule="evenodd"/><path d="M1364 1316C1364 1308.82 1369.82 1303 1377 1303 1384.18 1303 1390 1308.82 1390 1316 1390 1323.18 1384.18 1329 1377 1329 1369.82 1329 1364 1323.18 1364 1316Z" fill-rule="evenodd"/><path d="M1417 1350C1417 1342.82 1422.82 1337 1430 1337 1437.18 1337 1443 1342.82 1443 1350 1443 1357.18 1437.18 1363 1430 1363 1422.82 1363 1417 1357.18 1417 1350Z" fill-rule="evenodd"/><path d="M1472 1376C1472 1368.82 1477.6 1363 1484.5 1363 1491.4 1363 1497 1368.82 1497 1376 1497 1383.18 1491.4 1389 1484.5 1389 1477.6 1389 1472 1383.18 1472 1376Z" fill-rule="evenodd"/><path d="M1530 1324C1530 1316.82 1535.82 1311 1543 1311 1550.18 1311 1556 1316.82 1556 1324 1556 1331.18 1550.18 1337 1543 1337 1535.82 1337 1530 1331.18 1530 1324Z" fill-rule="evenodd"/><path d="M1561 1353C1561 1345.82 1566.82 1340 1574 1340 1581.18 1340 1587 1345.82 1587 1353 1587 1360.18 1581.18 1366 1574 1366 1566.82 1366 1561 1360.18 1561 1353Z" fill-rule="evenodd"/><path d="M1549 1133C1549 1125.82 1554.82 1120 1562 1120 1569.18 1120 1575 1125.82 1575 1133 1575 1140.18 1569.18 1146 1562 1146 1554.82 1146 1549 1140.18 1549 1133Z" fill-rule="evenodd"/><path d="M1583 1138C1583 1130.82 1588.82 1125 1596 1125 1603.18 1125 1609 1130.82 1609 1138 1609 1145.18 1603.18 1151 1596 1151 1588.82 1151 1583 1145.18 1583 1138Z" fill-rule="evenodd"/><path d="M1595 1079C1595 1071.82 1600.82 1066 1608 1066 1615.18 1066 1621 1071.82 1621 1079 1621 1086.18 1615.18 1092 1608 1092 1600.82 1092 1595 1086.18 1595 1079Z" fill-rule="evenodd"/><path d="M1597 1018C1597 1010.82 1602.82 1005 1610 1005 1617.18 1005 1623 1010.82 1623 1018 1623 1025.18 1617.18 1031 1610 1031 1602.82 1031 1597 1025.18 1597 1018Z" fill-rule="evenodd"/><path d="M1535 1060C1535 1052.82 1540.82 1047 1548 1047 1555.18 1047 1561 1052.82 1561 1060 1561 1067.18 1555.18 1073 1548 1073 1540.82 1073 1535 1067.18 1535 1060Z" fill-rule="evenodd"/><path d="M1459 1021C1459 1013.82 1464.82 1008 1472 1008 1479.18 1008 1485 1013.82 1485 1021 1485 1028.18 1479.18 1034 1472 1034 1464.82 1034 1459 1028.18 1459 1021Z" fill-rule="evenodd"/><path d="M1379 1042C1379 1034.82 1384.82 1029 1392 1029 1399.18 1029 1405 1034.82 1405 1042 1405 1049.18 1399.18 1055 1392 1055 1384.82 1055 1379 1049.18 1379 1042Z" fill-rule="evenodd"/><path d="M1387 1076C1387 1068.82 1392.82 1063 1400 1063 1407.18 1063 1413 1068.82 1413 1076 1413 1083.18 1407.18 1089 1400 1089 1392.82 1089 1387 1083.18 1387 1076Z" fill-rule="evenodd"/><path d="M1443 1112C1443 1104.82 1448.82 1099 1456 1099 1463.18 1099 1469 1104.82 1469 1112 1469 1119.18 1463.18 1125 1456 1125 1448.82 1125 1443 1119.18 1443 1112Z" fill-rule="evenodd"/><path d="M1446 1156C1446 1148.82 1451.82 1143 1459 1143 1466.18 1143 1472 1148.82 1472 1156 1472 1163.18 1466.18 1169 1459 1169 1451.82 1169 1446 1163.18 1446 1156Z" fill-rule="evenodd"/><path d="M1536 929C1536 921.82 1541.82 916 1549 916 1556.18 916 1562 921.82 1562 929 1562 936.18 1556.18 942 1549 942 1541.82 942 1536 936.18 1536 929Z" fill-rule="evenodd"/><path d="M1597 928C1597 920.82 1602.82 915 1610 915 1617.18 915 1623 920.82 1623 928 1623 935.18 1617.18 941 1610 941 1602.82 941 1597 935.18 1597 928Z" fill-rule="evenodd"/><path d="M1483 967C1483 959.82 1488.82 954 1496 954 1503.18 954 1509 959.82 1509 967 1509 974.18 1503.18 980 1496 980 1488.82 980 1483 974.18 1483 967Z" fill-rule="evenodd"/><path d="M0 13.0001C-3.31016e-15 5.82033 5.82033 0 13.0001 0 20.1798-3.31016e-15 26.0001 5.82033 26.0001 13.0001 26.0001 20.1798 20.1798 26.0001 13.0001 26.0001 5.82033 26.0001-4.96525e-15 20.1798 0 13.0001Z" fill-rule="evenodd" transform="matrix(-1 0 0 1 1838 1274)"/><path d="M0 13.0001C-3.31016e-15 5.82033 5.82033 0 13.0001 0 20.1798-3.31016e-15 26.0001 5.82033 26.0001 13.0001 26.0001 20.1798 20.1798 26.0001 13.0001 26.0001 5.82033 26.0001-4.96525e-15 20.1798 0 13.0001Z" fill-rule="evenodd" transform="matrix(-1 0 0 1 1765 1274)"/><path d="M0 13.0001C-3.31016e-15 5.82033 5.82033 0 13.0001 0 20.1798-3.31016e-15 26.0001 5.82033 26.0001 13.0001 26.0001 20.1798 20.1798 26.0001 13.0001 26.0001 5.82033 26.0001-4.96525e-15 20.1798 0 13.0001Z" fill-rule="evenodd" transform="matrix(-1 0 0 1 1765 1174)"/><path d="M0 13.0001C-3.31016e-15 5.82033 5.82033 0 13.0001 0 20.1798-3.31016e-15 26.0001 5.82033 26.0001 13.0001 26.0001 20.1798 20.1798 26.0001 13.0001 26.0001 5.82033 26.0001-4.96525e-15 20.1798 0 13.0001Z" fill-rule="evenodd" transform="matrix(-1 0 0 1 1938 1123)"/><path d="M0 13.0001C-3.31016e-15 5.82033 5.82033 0 13.0001 0 20.1798-3.31016e-15 26.0001 5.82033 26.0001 13.0001 26.0001 20.1798 20.1798 26.0001 13.0001 26.0001 5.82033 26.0001-4.96525e-15 20.1798 0 13.0001Z" fill-rule="evenodd" transform="matrix(-1 0 0 1 1960 1187)"/><path d="M0 13.0001C-3.31016e-15 5.82033 5.82033 0 13.0001 0 20.1798-3.31016e-15 26.0001 5.82033 26.0001 13.0001 26.0001 20.1798 20.1798 26.0001 13.0001 26.0001 5.82033 26.0001-4.96525e-15 20.1798 0 13.0001Z" fill-rule="evenodd" transform="matrix(-1 0 0 1 1979 1272)"/><path d="M0 12.9999C-3.31016e-15 5.82025 5.82033 0 13.0001 0 20.1798-3.31012e-15 26.0001 5.82025 26.0001 12.9999 26.0001 20.1795 20.1798 25.9998 13.0001 25.9998 5.82033 25.9998-4.96525e-15 20.1795 0 12.9999Z" fill-rule="evenodd" transform="matrix(-1 0 0 1 1936 1303)"/><path d="M0 13.0001C-3.31016e-15 5.82033 5.82033 0 13.0001 0 20.1798-3.31016e-15 26.0001 5.82033 26.0001 13.0001 26.0001 20.1798 20.1798 26.0001 13.0001 26.0001 5.82033 26.0001-4.96525e-15 20.1798 0 13.0001Z" fill-rule="evenodd" transform="matrix(-1 0 0 1 1883 1337)"/><path d="M0 13.0001C-3.31016e-15 5.82033 5.82033 0 13.0001 0 20.1798-3.31016e-15 26.0001 5.82033 26.0001 13.0001 26.0001 20.1798 20.1798 26.0001 13.0001 26.0001 5.82033 26.0001-4.96525e-15 20.1798 0 13.0001Z" fill-rule="evenodd" transform="matrix(-1 0 0 1 1828 1363)"/><path d="M0 12.9999C-3.31016e-15 5.82025 5.82033 0 13.0001 0 20.1798-3.31012e-15 26.0001 5.82025 26.0001 12.9999 26.0001 20.1795 20.1798 25.9998 13.0001 25.9998 5.82033 25.9998-4.96525e-15 20.1795 0 12.9999Z" fill-rule="evenodd" transform="matrix(-1 0 0 1 1770 1311)"/><path d="M0 13.0001C-3.31016e-15 5.82033 5.82033 0 13.0001 0 20.1798-3.31016e-15 26.0001 5.82033 26.0001 13.0001 26.0001 20.1798 20.1798 26.0001 13.0001 26.0001 5.82033 26.0001-4.96525e-15 20.1798 0 13.0001Z" fill-rule="evenodd" transform="matrix(-1 0 0 1 1739 1340)"/><path d="M0 13.0001C-3.31016e-15 5.82033 5.82033 0 13.0001 0 20.1798-3.31016e-15 26.0001 5.82033 26.0001 13.0001 26.0001 20.1798 20.1798 26.0001 13.0001 26.0001 5.82033 26.0001-4.96525e-15 20.1798 0 13.0001Z" fill-rule="evenodd" transform="matrix(-1 0 0 1 1750 1120)"/><path d="M0 12.9999C-3.31016e-15 5.82025 5.82033 0 13.0001 0 20.1798-3.31012e-15 26.0001 5.82025 26.0001 12.9999 26.0001 20.1795 20.1798 25.9998 13.0001 25.9998 5.82033 25.9998-4.96525e-15 20.1795 0 12.9999Z" fill-rule="evenodd" transform="matrix(-1 0 0 1 1716 1125)"/><path d="M0 13.0001C-3.31016e-15 5.82033 5.82033 0 13.0001 0 20.1798-3.31016e-15 26.0001 5.82033 26.0001 13.0001 26.0001 20.1798 20.1798 26.0001 13.0001 26.0001 5.82033 26.0001-4.96525e-15 20.1798 0 13.0001Z" fill-rule="evenodd" transform="matrix(-1 0 0 1 1705 1066)"/><path d="M0 12.9999C-3.31012e-15 5.82025 5.82025 0 12.9999 0 20.1795-3.31012e-15 25.9998 5.82025 25.9998 12.9999 25.9998 20.1795 20.1795 25.9998 12.9999 25.9998 5.82025 25.9998-4.96518e-15 20.1795 0 12.9999Z" fill-rule="evenodd" transform="matrix(-1 0 0 1 1702 1005)"/><path d="M0 12.9999C-3.31016e-15 5.82025 5.82033 0 13.0001 0 20.1798-3.31012e-15 26.0001 5.82025 26.0001 12.9999 26.0001 20.1795 20.1798 25.9998 13.0001 25.9998 5.82033 25.9998-4.96525e-15 20.1795 0 12.9999Z" fill-rule="evenodd" transform="matrix(-1 0 0 1 1765 1047)"/><path d="M0 13.0001C-3.31016e-15 5.82033 5.82033 0 13.0001 0 20.1798-3.31016e-15 26.0001 5.82033 26.0001 13.0001 26.0001 20.1798 20.1798 26.0001 13.0001 26.0001 5.82033 26.0001-4.96525e-15 20.1798 0 13.0001Z" fill-rule="evenodd" transform="matrix(-1 0 0 1 1840 1008)"/><path d="M0 13.0001C-3.31012e-15 5.82033 5.82025 0 12.9999 0 20.1795-3.31016e-15 25.9998 5.82033 25.9998 13.0001 25.9998 20.1798 20.1795 26.0001 12.9999 26.0001 5.82025 26.0001-4.96518e-15 20.1798 0 13.0001Z" fill-rule="evenodd" transform="matrix(-1 0 0 1 1921 1029)"/><path d="M0 13.0001C-3.31016e-15 5.82033 5.82033 0 13.0001 0 20.1798-3.31016e-15 26.0001 5.82033 26.0001 13.0001 26.0001 20.1798 20.1798 26.0001 13.0001 26.0001 5.82033 26.0001-4.96525e-15 20.1798 0 13.0001Z" fill-rule="evenodd" transform="matrix(-1 0 0 1 1913 1063)"/><path d="M0 13.0001C-3.31012e-15 5.82033 5.82025 0 12.9999 0 20.1795-3.31016e-15 25.9998 5.82033 25.9998 13.0001 25.9998 20.1798 20.1795 26.0001 12.9999 26.0001 5.82025 26.0001-4.96518e-15 20.1798 0 13.0001Z" fill-rule="evenodd" transform="matrix(-1 0 0 1 1857 1099)"/><path d="M0 13.0001C-3.31016e-15 5.82033 5.82033 0 13.0001 0 20.1798-3.31016e-15 26.0001 5.82033 26.0001 13.0001 26.0001 20.1798 20.1798 26.0001 13.0001 26.0001 5.82033 26.0001-4.96525e-15 20.1798 0 13.0001Z" fill-rule="evenodd" transform="matrix(-1 0 0 1 1853 1143)"/><path d="M0 12.9999C-3.31016e-15 5.82025 5.82033 0 13.0001 0 20.1798-3.31012e-15 26.0001 5.82025 26.0001 12.9999 26.0001 20.1795 20.1798 25.9998 13.0001 25.9998 5.82033 25.9998-4.96525e-15 20.1795 0 12.9999Z" fill-rule="evenodd" transform="matrix(-1 0 0 1 1764 916)"/><path d="M0 12.9999C-3.31012e-15 5.82025 5.82025 0 12.9999 0 20.1795-3.31012e-15 25.9998 5.82025 25.9998 12.9999 25.9998 20.1795 20.1795 25.9998 12.9999 25.9998 5.82025 25.9998-4.96518e-15 20.1795 0 12.9999Z" fill-rule="evenodd" transform="matrix(-1 0 0 1 1702 915)"/><path d="M1795 967C1795 959.82 1800.82 954 1808 954 1815.18 954 1821 959.82 1821 967 1821 974.18 1815.18 980 1808 980 1800.82 980 1795 974.18 1795 967Z" fill-rule="evenodd"/><path d="M1799 1233C1799 1225.82 1804.82 1220 1812 1220 1819.18 1220 1825 1225.82 1825 1233 1825 1240.18 1819.18 1246 1812 1246 1804.82 1246 1799 1240.18 1799 1233Z" fill-rule="evenodd"/><path d="M1492.5 1528.5 1808.5 1528.5 1808.4 1528.56C1761.46 1554.03 1707.67 1568.5 1650.5 1568.5 1593.33 1568.5 1539.54 1554.03 1492.6 1528.56Z" stroke="#767171" stroke-width="0" stroke-miterlimit="8" fill="#767171" fill-rule="evenodd"/></g></svg>