<svg width="733" height="733" xmlns="http://www.w3.org/2000/svg" xmlns:xlink="http://www.w3.org/1999/xlink" overflow="hidden"><defs><clipPath id="clip0"><rect x="183" y="871" width="733" height="733"/></clipPath></defs><g clip-path="url(#clip0)" transform="translate(-183 -871)"><path d="M0 0 0.000360892 207.874" stroke="#D9D9D9" stroke-width="18.3333" stroke-linecap="round" stroke-miterlimit="8" fill="#D9D9D9" fill-rule="evenodd" transform="matrix(1 0 0 -1 550 1554.87)"/><path d="M353 1114 549.625 1346.38" stroke="#D9D9D9" stroke-width="18.3333" stroke-linecap="round" stroke-miterlimit="8" fill="#D9D9D9" fill-rule="evenodd"/><path d="M0 0 67.375 13.0795" stroke="#D9D9D9" stroke-width="18.3333" stroke-linecap="round" stroke-miterlimit="8" fill="#D9D9D9" fill-rule="evenodd" transform="matrix(1 0 0 -1 337 1189.08)"/><path d="M0 0 66.7579 81.9969" stroke="#D9D9D9" stroke-width="18.3333" stroke-linecap="round" stroke-miterlimit="8" fill="#D9D9D9" fill-rule="evenodd" transform="matrix(1 0 0 -1 379 1145)"/><path d="M0 0 6.25787 19.0927" stroke="#D9D9D9" stroke-width="18.3333" stroke-linecap="round" stroke-miterlimit="8" fill="#D9D9D9" fill-rule="evenodd" transform="matrix(1 0 0 -1 440 1213.09)"/><path d="M0 0 35.75 19.9375" stroke="#D9D9D9" stroke-width="18.3333" stroke-linecap="round" stroke-miterlimit="8" fill="#D9D9D9" fill-rule="evenodd" transform="matrix(1 0 0 -1 448 1287.94)"/><path d="M338 1283 446.625 1288.5" stroke="#D9D9D9" stroke-width="18.3333" stroke-linecap="round" stroke-miterlimit="8" fill="#D9D9D9" fill-rule="evenodd"/><path d="M407.82 1285.5 394 1236" stroke="#D9D9D9" stroke-width="18.3333" stroke-linecap="round" stroke-miterlimit="8" fill="#D9D9D9" fill-rule="evenodd"/><path d="M0 0 74.5939 10.6106" stroke="#D9D9D9" stroke-width="18.3333" stroke-linecap="round" stroke-miterlimit="8" fill="#D9D9D9" fill-rule="evenodd" transform="matrix(1 0 0 -1 429 1089.61)"/><path d="M0 0 23.4454 26.1254" stroke="#D9D9D9" stroke-width="18.3333" stroke-linecap="round" stroke-miterlimit="8" fill="#D9D9D9" fill-rule="evenodd" transform="matrix(1 0 0 -1 466 1236.13)"/><path d="M489.777 1209.56 463 1136" stroke="#D9D9D9" stroke-width="18.3333" stroke-linecap="round" stroke-miterlimit="8" fill="#D9D9D9" fill-rule="evenodd"/><path d="M0 0 15.6977 29.4878" stroke="#D9D9D9" stroke-width="18.3333" stroke-linecap="round" stroke-miterlimit="8" fill="#D9D9D9" fill-rule="evenodd" transform="matrix(1 0 0 -1 476 1170.49)"/><path d="M369.933 1180.44 360 1164" stroke="#D9D9D9" stroke-width="18.3333" stroke-linecap="round" stroke-miterlimit="8" fill="#D9D9D9" fill-rule="evenodd"/><path d="M0 0 51.7386 62.7422" stroke="#D9D9D9" stroke-width="18.3333" stroke-linecap="round" stroke-miterlimit="8" fill="#D9D9D9" fill-rule="evenodd" transform="matrix(-1 0 0 1 381.739 1287)"/><path d="M350 1329 384.286 1370.76" stroke="#D9D9D9" stroke-width="18.3333" stroke-linecap="round" stroke-miterlimit="8" fill="#D9D9D9" fill-rule="evenodd"/><path d="M0 0 36.9839 50.4275" stroke="#D9D9D9" stroke-width="18.3333" stroke-linecap="round" stroke-miterlimit="8" fill="#D9D9D9" fill-rule="evenodd" transform="matrix(-1 0 0 1 510.984 1301)"/><path d="M489.067 1329.06 444 1325" stroke="#D9D9D9" stroke-width="18.3333" stroke-linecap="round" stroke-miterlimit="8" fill="#D9D9D9" fill-rule="evenodd"/><path d="M370.171 1283.18 255 1201" stroke="#D9D9D9" stroke-width="18.3333" stroke-linecap="round" stroke-miterlimit="8" fill="#D9D9D9" fill-rule="evenodd"/><path d="M0 0 32.7434 64.0209" stroke="#D9D9D9" stroke-width="18.3333" stroke-linecap="round" stroke-miterlimit="8" fill="#D9D9D9" fill-rule="evenodd" transform="matrix(1 0 0 -1 278 1211.02)"/><path d="M295.394 1170.9 275 1136" stroke="#D9D9D9" stroke-width="18.3333" stroke-linecap="round" stroke-miterlimit="8" fill="#D9D9D9" fill-rule="evenodd"/><path d="M0 0 71.4105 43.7827" stroke="#D9D9D9" stroke-width="18.3333" stroke-linecap="round" stroke-miterlimit="8" fill="#D9D9D9" fill-rule="evenodd" transform="matrix(-1 0 0 1 308.41 1240)"/><path d="M273 1264 277.643 1315.93" stroke="#D9D9D9" stroke-width="18.3333" stroke-linecap="round" stroke-miterlimit="8" fill="#D9D9D9" fill-rule="evenodd"/><path d="M412.246 1103.92 370 1021" stroke="#D9D9D9" stroke-width="18.3333" stroke-linecap="round" stroke-miterlimit="8" fill="#D9D9D9" fill-rule="evenodd"/><path d="M384.508 1049.86 294 1043" stroke="#D9D9D9" stroke-width="18.3333" stroke-linecap="round" stroke-miterlimit="8" fill="#D9D9D9" fill-rule="evenodd"/><path d="M0 0 30.7968 30.3471" stroke="#D9D9D9" stroke-width="18.3333" stroke-linecap="round" stroke-miterlimit="8" fill="#D9D9D9" fill-rule="evenodd" transform="matrix(-1 0 0 1 329.797 1048)"/><path d="M483.816 1080.49 450 934" stroke="#D9D9D9" stroke-width="18.3333" stroke-linecap="round" stroke-miterlimit="8" fill="#D9D9D9" fill-rule="evenodd"/><path d="M0 0 34.6309 24.8792" stroke="#D9D9D9" stroke-width="18.3333" stroke-linecap="round" stroke-miterlimit="8" fill="#D9D9D9" fill-rule="evenodd" transform="matrix(1 0 0 -1 476 1045.88)"/><path d="M462.23 992.344 392 967" stroke="#D9D9D9" stroke-width="18.3333" stroke-linecap="round" stroke-miterlimit="8" fill="#D9D9D9" fill-rule="evenodd"/><path d="M0 0 38.8984 26.5967" stroke="#D9D9D9" stroke-width="18.3333" stroke-linecap="round" stroke-miterlimit="8" fill="#D9D9D9" fill-rule="evenodd" transform="matrix(1 0 0 -1 465 954.597)"/><path d="M0 0 196.625 232.375" stroke="#D9D9D9" stroke-width="18.3333" stroke-linecap="round" stroke-miterlimit="8" fill="#D9D9D9" fill-rule="evenodd" transform="matrix(-1 0 0 1 746.625 1114)"/><path d="M762.375 1189.08 695 1176" stroke="#D9D9D9" stroke-width="18.3333" stroke-linecap="round" stroke-miterlimit="8" fill="#D9D9D9" fill-rule="evenodd"/><path d="M719.758 1145 653 1063" stroke="#D9D9D9" stroke-width="18.3333" stroke-linecap="round" stroke-miterlimit="8" fill="#D9D9D9" fill-rule="evenodd"/><path d="M659.258 1213.09 653 1194" stroke="#D9D9D9" stroke-width="18.3333" stroke-linecap="round" stroke-miterlimit="8" fill="#D9D9D9" fill-rule="evenodd"/><path d="M651.75 1287.94 616 1268" stroke="#D9D9D9" stroke-width="18.3333" stroke-linecap="round" stroke-miterlimit="8" fill="#D9D9D9" fill-rule="evenodd"/><path d="M0 0 71.7923 3.63491" stroke="#D9D9D9" stroke-width="18.3333" stroke-linecap="round" stroke-miterlimit="8" fill="#D9D9D9" fill-rule="evenodd" transform="matrix(-1 0 0 1 724.792 1284)"/><path d="M0 0 13.8204 49.5004" stroke="#D9D9D9" stroke-width="18.3333" stroke-linecap="round" stroke-miterlimit="8" fill="#D9D9D9" fill-rule="evenodd" transform="matrix(1 0 0 -1 691 1285.5)"/><path d="M670.594 1089.61 596 1079" stroke="#D9D9D9" stroke-width="18.3333" stroke-linecap="round" stroke-miterlimit="8" fill="#D9D9D9" fill-rule="evenodd"/><path d="M633.446 1236.13 610 1210" stroke="#D9D9D9" stroke-width="18.3333" stroke-linecap="round" stroke-miterlimit="8" fill="#D9D9D9" fill-rule="evenodd"/><path d="M0 0 26.7771 73.5621" stroke="#D9D9D9" stroke-width="18.3333" stroke-linecap="round" stroke-miterlimit="8" fill="#D9D9D9" fill-rule="evenodd" transform="matrix(1 0 0 -1 610 1209.56)"/><path d="M623.698 1170.49 608 1141" stroke="#D9D9D9" stroke-width="18.3333" stroke-linecap="round" stroke-miterlimit="8" fill="#D9D9D9" fill-rule="evenodd"/><path d="M0 0 9.93356 16.4433" stroke="#D9D9D9" stroke-width="18.3333" stroke-linecap="round" stroke-miterlimit="8" fill="#D9D9D9" fill-rule="evenodd" transform="matrix(1 0 0 -1 729 1180.44)"/><path d="M718 1287 769.739 1349.74" stroke="#D9D9D9" stroke-width="18.3333" stroke-linecap="round" stroke-miterlimit="8" fill="#D9D9D9" fill-rule="evenodd"/><path d="M0 0 34.2859 41.7596" stroke="#D9D9D9" stroke-width="18.3333" stroke-linecap="round" stroke-miterlimit="8" fill="#D9D9D9" fill-rule="evenodd" transform="matrix(-1 0 0 1 749.286 1329)"/><path d="M589 1301 625.984 1351.43" stroke="#D9D9D9" stroke-width="18.3333" stroke-linecap="round" stroke-miterlimit="8" fill="#D9D9D9" fill-rule="evenodd"/><path d="M0 0 45.0664 4.05679" stroke="#D9D9D9" stroke-width="18.3333" stroke-linecap="round" stroke-miterlimit="8" fill="#D9D9D9" fill-rule="evenodd" transform="matrix(1 0 0 -1 610 1329.06)"/><path d="M0 0 115.171 82.1781" stroke="#D9D9D9" stroke-width="18.3333" stroke-linecap="round" stroke-miterlimit="8" fill="#D9D9D9" fill-rule="evenodd" transform="matrix(1 0 0 -1 729 1283.18)"/><path d="M821.743 1211.02 789 1147" stroke="#D9D9D9" stroke-width="18.3333" stroke-linecap="round" stroke-miterlimit="8" fill="#D9D9D9" fill-rule="evenodd"/><path d="M0 0 20.3944 34.9005" stroke="#D9D9D9" stroke-width="18.3333" stroke-linecap="round" stroke-miterlimit="8" fill="#D9D9D9" fill-rule="evenodd" transform="matrix(1 0 0 -1 804 1170.9)"/><path d="M791 1240 862.41 1283.78" stroke="#D9D9D9" stroke-width="18.3333" stroke-linecap="round" stroke-miterlimit="8" fill="#D9D9D9" fill-rule="evenodd"/><path d="M0 0 4.64324 51.9299" stroke="#D9D9D9" stroke-width="18.3333" stroke-linecap="round" stroke-miterlimit="8" fill="#D9D9D9" fill-rule="evenodd" transform="matrix(-1 0 0 1 826.643 1264)"/><path d="M0 0 42.2461 82.9215" stroke="#D9D9D9" stroke-width="18.3333" stroke-linecap="round" stroke-miterlimit="8" fill="#D9D9D9" fill-rule="evenodd" transform="matrix(1 0 0 -1 687 1103.92)"/><path d="M0 0 90.5078 6.8602" stroke="#D9D9D9" stroke-width="18.3333" stroke-linecap="round" stroke-miterlimit="8" fill="#D9D9D9" fill-rule="evenodd" transform="matrix(1 0 0 -1 715 1049.86)"/><path d="M770 1048 800.797 1078.35" stroke="#D9D9D9" stroke-width="18.3333" stroke-linecap="round" stroke-miterlimit="8" fill="#D9D9D9" fill-rule="evenodd"/><path d="M0 0 33.816 146.495" stroke="#D9D9D9" stroke-width="18.3333" stroke-linecap="round" stroke-miterlimit="8" fill="#D9D9D9" fill-rule="evenodd" transform="matrix(1 0 0 -1 616 1080.49)"/><path d="M623.631 1045.88 589 1021" stroke="#D9D9D9" stroke-width="18.3333" stroke-linecap="round" stroke-miterlimit="8" fill="#D9D9D9" fill-rule="evenodd"/><path d="M0 0 70.2304 25.3444" stroke="#D9D9D9" stroke-width="18.3333" stroke-linecap="round" stroke-miterlimit="8" fill="#D9D9D9" fill-rule="evenodd" transform="matrix(1 0 0 -1 637 992.344)"/><path d="M634.898 954.597 596 928" stroke="#D9D9D9" stroke-width="18.3333" stroke-linecap="round" stroke-miterlimit="8" fill="#D9D9D9" fill-rule="evenodd"/><path d="M0 0 0.000360892 73.8007" stroke="#0052AC" stroke-width="13.75" stroke-linecap="round" stroke-miterlimit="8" fill="none" fill-rule="evenodd" transform="matrix(1 0 0 -1 337 1273.8)"/><path d="M382.697 1223.55 346 1196" stroke="#0052AC" stroke-width="13.75" stroke-linecap="round" stroke-miterlimit="8" fill="none" fill-rule="evenodd"/><path d="M0 0 36.6966 27.548" stroke="#0052AC" stroke-width="13.75" stroke-linecap="round" stroke-miterlimit="8" fill="none" fill-rule="evenodd" transform="matrix(-1 0 0 1 437.697 1196)"/><path d="M447 1200 447 1273.8" stroke="#0052AC" stroke-width="13.75" stroke-linecap="round" stroke-miterlimit="8" fill="none" fill-rule="evenodd"/><path d="M0 0 40.4611 33.1025" stroke="#4472C4" stroke-width="4.58333" stroke-linecap="round" stroke-miterlimit="8" fill="none" fill-rule="evenodd" transform="matrix(-1 0 0 1 501.961 1027.5)"/><path d="M652 1200 652 1273.8" stroke="#830B39" stroke-width="13.75" stroke-linecap="round" stroke-miterlimit="8" fill="none" fill-rule="evenodd"/><path d="M0 0 46.7031 0.000360892" stroke="#830B39" stroke-width="13.75" stroke-linecap="round" stroke-miterlimit="8" fill="none" fill-rule="evenodd" transform="matrix(-1 0 0 1 711.703 1287)"/><path d="M613.5 1147.5 644.152 1178.23" stroke="#D41159" stroke-width="4.58333" stroke-linecap="round" stroke-miterlimit="8" fill="none" fill-rule="evenodd"/><path d="M0 0 72.9511 56.2584" stroke="#D41159" stroke-width="4.58333" stroke-linecap="round" stroke-miterlimit="8" fill="none" fill-rule="evenodd" transform="matrix(-1 0 0 1 735.451 1121.5)"/><path d="M0 0 14.2473 47.0145" stroke="#D41159" stroke-width="4.58333" stroke-linecap="round" stroke-miterlimit="8" fill="none" fill-rule="evenodd" transform="matrix(-1 0 0 1 651.747 1073.5)"/><path d="M0 0 34.0794 18.4716" stroke="#D41159" stroke-width="4.58333" stroke-linecap="round" stroke-miterlimit="8" fill="none" fill-rule="evenodd" transform="matrix(1 0 0 -1 605.5 1078.97)"/><path d="M790.952 1067.27 736.5 1030.5" stroke="#D41159" stroke-width="4.58333" stroke-linecap="round" stroke-miterlimit="8" fill="none" fill-rule="evenodd"/><path d="M665.5 1060.5 735.371 1103.26" stroke="#D41159" stroke-width="4.58333" stroke-linecap="round" stroke-miterlimit="8" fill="none" fill-rule="evenodd"/><path d="M800.5 1089.5 816.871 1126.49" stroke="#D41159" stroke-width="4.58333" stroke-linecap="round" stroke-miterlimit="8" fill="none" fill-rule="evenodd"/><path d="M0 0 7.70397 8.76211" stroke="#D41159" stroke-width="4.58333" stroke-linecap="round" stroke-miterlimit="8" fill="none" fill-rule="evenodd" transform="matrix(-1 0 0 1 808.204 1055.5)"/><path d="M757.5 1112.5 813.293 1135.74" stroke="#D41159" stroke-width="4.58333" stroke-linecap="round" stroke-miterlimit="8" fill="none" fill-rule="evenodd"/><path d="M825.5 1149.5 847.112 1187.68" stroke="#D41159" stroke-width="4.58333" stroke-linecap="round" stroke-miterlimit="8" fill="none" fill-rule="evenodd"/><path d="M734.5 1296.5 809.915 1316.66" stroke="#D41159" stroke-width="4.58333" stroke-linecap="round" stroke-miterlimit="8" fill="none" fill-rule="evenodd"/><path d="M0 0 20.7892 21.5402" stroke="#D41159" stroke-width="4.58333" stroke-linecap="round" stroke-miterlimit="8" fill="none" fill-rule="evenodd" transform="matrix(1 0 0 -1 832.5 1307.04)"/><path d="M0 0 0.891043 66.6157" stroke="#D41159" stroke-width="4.58333" stroke-linecap="round" stroke-miterlimit="8" fill="none" fill-rule="evenodd" transform="matrix(-1 0 0 1 716.391 1296.5)"/><path d="M0 0 32.4468 16.5577" stroke="#D41159" stroke-width="4.58333" stroke-linecap="round" stroke-miterlimit="8" fill="none" fill-rule="evenodd" transform="matrix(1 0 0 -1 728.5 1376.06)"/><path d="M652.5 1300.5 656.954 1311.58" stroke="#D41159" stroke-width="4.58333" stroke-linecap="round" stroke-miterlimit="8" fill="none" fill-rule="evenodd"/><path d="M603.5 1151.5 625.817 1340.94" stroke="#D41159" stroke-width="4.58333" stroke-linecap="round" stroke-miterlimit="8" fill="none" fill-rule="evenodd"/><path d="M749.5 1166.5 822.895 1303.95" stroke="#D41159" stroke-width="4.58333" stroke-linecap="round" stroke-miterlimit="8" fill="none" fill-rule="evenodd"/><path d="M0 0 43.1584 70.3249" stroke="#D41159" stroke-width="4.58333" stroke-linecap="round" stroke-miterlimit="8" fill="none" fill-rule="evenodd" transform="matrix(1 0 0 -1 598.5 1009.82)"/><path d="M602.5 1018.5 714.601 1021.66" stroke="#D41159" stroke-width="4.58333" stroke-linecap="round" stroke-miterlimit="8" fill="none" fill-rule="evenodd"/><path d="M660.5 939.5 700.066 958.838" stroke="#D41159" stroke-width="4.58333" stroke-linecap="round" stroke-miterlimit="8" fill="none" fill-rule="evenodd"/><path d="M0 0 0.000360892 64.3038" stroke="#D41159" stroke-width="4.58333" stroke-linecap="round" stroke-miterlimit="8" fill="none" fill-rule="evenodd" transform="matrix(1 0 0 -1 589.5 1005.8)"/><path d="M0 0 18.6964 54.197" stroke="#D41159" stroke-width="4.58333" stroke-linecap="round" stroke-miterlimit="8" fill="none" fill-rule="evenodd" transform="matrix(1 0 0 -1 712.5 1220.7)"/><path d="M192 1237.5C192 1040.06 352.058 880 549.5 880 746.942 880 907 1040.06 907 1237.5 907 1434.94 746.942 1595 549.5 1595 352.058 1595 192 1434.94 192 1237.5Z" stroke="#AFABAB" stroke-width="18.3333" stroke-miterlimit="8" fill="none" fill-rule="evenodd"/><path d="M0 0 84.9887 80.0261" stroke="#1A85FF" stroke-width="4.58333" stroke-linecap="round" stroke-miterlimit="8" fill="none" fill-rule="evenodd" transform="matrix(-1 0 0 1 328.489 1196.5)"/><path d="M268.094 1307.85 243.5 1295.5" stroke="#1A85FF" stroke-width="4.58333" stroke-linecap="round" stroke-miterlimit="8" fill="none" fill-rule="evenodd"/><path d="M0 0 7.34777 37.0658" stroke="#1A85FF" stroke-width="4.58333" stroke-linecap="round" stroke-miterlimit="8" fill="none" fill-rule="evenodd" transform="matrix(1 0 0 -1 330.5 1337.57)"/><path d="M429.949 1324.57 350.5 1287.5" stroke="#1A85FF" stroke-width="4.58333" stroke-linecap="round" stroke-miterlimit="8" fill="none" fill-rule="evenodd"/><path d="M0 0 39.7812 33.3551" stroke="#1A85FF" stroke-width="4.58333" stroke-linecap="round" stroke-miterlimit="8" fill="none" fill-rule="evenodd" transform="matrix(1 0 0 -1 394.5 1366.85)"/><path d="M465.29 1344.6 452.5 1333.5" stroke="#1A85FF" stroke-width="4.58333" stroke-linecap="round" stroke-miterlimit="8" fill="none" fill-rule="evenodd"/><path d="M0 0 85.0162 69.0301" stroke="#1A85FF" stroke-width="4.58333" stroke-linecap="round" stroke-miterlimit="8" fill="none" fill-rule="evenodd" transform="matrix(-1 0 0 1 347.516 1121.5)"/><path d="M0 0 59.5985 14.0492" stroke="#1A85FF" stroke-width="4.58333" stroke-linecap="round" stroke-miterlimit="8" fill="none" fill-rule="evenodd" transform="matrix(-1 0 0 1 343.099 1112.5)"/><path d="M0 0 16.3708 36.9897" stroke="#1A85FF" stroke-width="4.58333" stroke-linecap="round" stroke-miterlimit="8" fill="none" fill-rule="evenodd" transform="matrix(1 0 0 -1 274.5 1123.49)"/><path d="M0 0 76.6882 23.0718" stroke="#1A85FF" stroke-width="4.58333" stroke-linecap="round" stroke-miterlimit="8" fill="none" fill-rule="evenodd" transform="matrix(-1 0 0 1 449.188 1133.5)"/><path d="M0 0 14.719 27.5935" stroke="#1A85FF" stroke-width="4.58333" stroke-linecap="round" stroke-miterlimit="8" fill="none" fill-rule="evenodd" transform="matrix(-1 0 0 1 462.219 1146.5)"/><path d="M0 0 39.5856 126.709" stroke="#1A85FF" stroke-width="4.58333" stroke-linecap="round" stroke-miterlimit="8" fill="none" fill-rule="evenodd" transform="matrix(1 0 0 -1 457.5 1278.21)"/><path d="M462.747 1120.51 448.5 1073.5" stroke="#1A85FF" stroke-width="4.58333" stroke-linecap="round" stroke-miterlimit="8" fill="none" fill-rule="evenodd"/><path d="M0 0 27.4426 36.1535" stroke="#1A85FF" stroke-width="4.58333" stroke-linecap="round" stroke-miterlimit="8" fill="none" fill-rule="evenodd" transform="matrix(1 0 0 -1 471.5 1124.65)"/><path d="M453.347 1124.86 301.5 1051.5" stroke="#1A85FF" stroke-width="4.58333" stroke-linecap="round" stroke-miterlimit="8" fill="none" fill-rule="evenodd"/><path d="M0 0 58.3502 11.2079" stroke="#1A85FF" stroke-width="4.58333" stroke-linecap="round" stroke-miterlimit="8" fill="none" fill-rule="evenodd" transform="matrix(-1 0 0 1 359.85 1021.5)"/><path d="M405.5 976.5 438.958 1051.45" stroke="#1A85FF" stroke-width="4.58333" stroke-linecap="round" stroke-miterlimit="8" fill="none" fill-rule="evenodd"/><path d="M0 0 40.4611 33.1025" stroke="#1A85FF" stroke-width="4.58333" stroke-linecap="round" stroke-miterlimit="8" fill="none" fill-rule="evenodd" transform="matrix(-1 0 0 1 501.961 1027.5)"/><path d="M0 0 1.10794 105.004" stroke="#1A85FF" stroke-width="4.58333" stroke-linecap="round" stroke-miterlimit="8" fill="none" fill-rule="evenodd" transform="matrix(-1 0 0 1 449.608 942.5)"/><path d="M0 0 35.5479 1.58937" stroke="#1A85FF" stroke-width="4.58333" stroke-linecap="round" stroke-miterlimit="8" fill="none" fill-rule="evenodd" transform="matrix(1 0 0 -1 462.5 930.089)"/><path d="M360.125 1143.64 356.5 1125.5" stroke="#1A85FF" stroke-width="4.58333" stroke-linecap="round" stroke-miterlimit="8" fill="none" fill-rule="evenodd"/><path d="M324 1287C324 1279.82 329.82 1274 337 1274 344.18 1274 350 1279.82 350 1287 350 1294.18 344.18 1300 337 1300 329.82 1300 324 1294.18 324 1287Z" fill="#0052AC" fill-rule="evenodd"/><path d="M379 1233C379 1225.82 384.82 1220 392 1220 399.18 1220 405 1225.82 405 1233 405 1240.18 399.18 1246 392 1246 384.82 1246 379 1240.18 379 1233Z" fill="#0052AC" fill-rule="evenodd"/><path d="M434 1287C434 1279.82 439.82 1274 447 1274 454.18 1274 460 1279.82 460 1287 460 1294.18 454.18 1300 447 1300 439.82 1300 434 1294.18 434 1287Z" fill="#0052AC" fill-rule="evenodd"/><path d="M324 1187C324 1179.82 329.82 1174 337 1174 344.18 1174 350 1179.82 350 1187 350 1194.18 344.18 1200 337 1200 329.82 1200 324 1194.18 324 1187Z" fill="#0052AC" fill-rule="evenodd"/><path d="M434 1187C434 1179.82 439.82 1174 447 1174 454.18 1174 460 1179.82 460 1187 460 1194.18 454.18 1200 447 1200 439.82 1200 434 1194.18 434 1187Z" fill="#0052AC" fill-rule="evenodd"/><path d="M261 1136C261 1128.82 266.82 1123 274 1123 281.18 1123 287 1128.82 287 1136 287 1143.18 281.18 1149 274 1149 266.82 1149 261 1143.18 261 1136Z" fill="#1A85FF" fill-rule="evenodd"/><path d="M239 1200C239 1192.82 244.82 1187 252 1187 259.18 1187 265 1192.82 265 1200 265 1207.18 259.18 1213 252 1213 244.82 1213 239 1207.18 239 1200Z" fill="#1A85FF" fill-rule="evenodd"/><path d="M221 1285C221 1277.82 226.82 1272 234 1272 241.18 1272 247 1277.82 247 1285 247 1292.18 241.18 1298 234 1298 226.82 1298 221 1292.18 221 1285Z" fill="#1A85FF" fill-rule="evenodd"/><path d="M264 1316C264 1308.82 269.82 1303 277 1303 284.18 1303 290 1308.82 290 1316 290 1323.18 284.18 1329 277 1329 269.82 1329 264 1323.18 264 1316Z" fill="#1A85FF" fill-rule="evenodd"/><path d="M317 1350C317 1342.82 322.82 1337 330 1337 337.18 1337 343 1342.82 343 1350 343 1357.18 337.18 1363 330 1363 322.82 1363 317 1357.18 317 1350Z" fill="#1A85FF" fill-rule="evenodd"/><path d="M372 1376C372 1368.82 377.596 1363 384.5 1363 391.404 1363 397 1368.82 397 1376 397 1383.18 391.404 1389 384.5 1389 377.596 1389 372 1383.18 372 1376Z" fill="#1A85FF" fill-rule="evenodd"/><path d="M430 1324C430 1316.82 435.82 1311 443 1311 450.18 1311 456 1316.82 456 1324 456 1331.18 450.18 1337 443 1337 435.82 1337 430 1331.18 430 1324Z" fill="#1A85FF" fill-rule="evenodd"/><path d="M461 1353C461 1345.82 466.82 1340 474 1340 481.18 1340 487 1345.82 487 1353 487 1360.18 481.18 1366 474 1366 466.82 1366 461 1360.18 461 1353Z" fill="#1A85FF" fill-rule="evenodd"/><path d="M449 1133C449 1125.82 454.82 1120 462 1120 469.18 1120 475 1125.82 475 1133 475 1140.18 469.18 1146 462 1146 454.82 1146 449 1140.18 449 1133Z" fill="#1A85FF" fill-rule="evenodd"/><path d="M483 1138C483 1130.82 488.82 1125 496 1125 503.18 1125 509 1130.82 509 1138 509 1145.18 503.18 1151 496 1151 488.82 1151 483 1145.18 483 1138Z" fill="#1A85FF" fill-rule="evenodd"/><path d="M495 1079C495 1071.82 500.82 1066 508 1066 515.18 1066 521 1071.82 521 1079 521 1086.18 515.18 1092 508 1092 500.82 1092 495 1086.18 495 1079Z" fill="#1A85FF" fill-rule="evenodd"/><path d="M497 1018C497 1010.82 502.82 1005 510 1005 517.18 1005 523 1010.82 523 1018 523 1025.18 517.18 1031 510 1031 502.82 1031 497 1025.18 497 1018Z" fill="#1A85FF" fill-rule="evenodd"/><path d="M435 1060C435 1052.82 440.82 1047 448 1047 455.18 1047 461 1052.82 461 1060 461 1067.18 455.18 1073 448 1073 440.82 1073 435 1067.18 435 1060Z" fill="#1A85FF" fill-rule="evenodd"/><path d="M359 1021C359 1013.82 364.82 1008 372 1008 379.18 1008 385 1013.82 385 1021 385 1028.18 379.18 1034 372 1034 364.82 1034 359 1028.18 359 1021Z" fill="#1A85FF" fill-rule="evenodd"/><path d="M279 1042C279 1034.82 284.82 1029 292 1029 299.18 1029 305 1034.82 305 1042 305 1049.18 299.18 1055 292 1055 284.82 1055 279 1049.18 279 1042Z" fill="#1A85FF" fill-rule="evenodd"/><path d="M287 1076C287 1068.82 292.82 1063 300 1063 307.18 1063 313 1068.82 313 1076 313 1083.18 307.18 1089 300 1089 292.82 1089 287 1083.18 287 1076Z" fill="#1A85FF" fill-rule="evenodd"/><path d="M343 1112C343 1104.82 348.82 1099 356 1099 363.18 1099 369 1104.82 369 1112 369 1119.18 363.18 1125 356 1125 348.82 1125 343 1119.18 343 1112Z" fill="#1A85FF" fill-rule="evenodd"/><path d="M346 1156C346 1148.82 351.82 1143 359 1143 366.18 1143 372 1148.82 372 1156 372 1163.18 366.18 1169 359 1169 351.82 1169 346 1163.18 346 1156Z" fill="#1A85FF" fill-rule="evenodd"/><path d="M436 929C436 921.82 441.82 916 449 916 456.18 916 462 921.82 462 929 462 936.18 456.18 942 449 942 441.82 942 436 936.18 436 929Z" fill="#1A85FF" fill-rule="evenodd"/><path d="M497 928C497 920.82 502.82 915 510 915 517.18 915 523 920.82 523 928 523 935.18 517.18 941 510 941 502.82 941 497 935.18 497 928Z" fill="#1A85FF" fill-rule="evenodd"/><path d="M383 967C383 959.82 388.82 954 396 954 403.18 954 409 959.82 409 967 409 974.18 403.18 980 396 980 388.82 980 383 974.18 383 967Z" fill="#1A85FF" fill-rule="evenodd"/><path d="M0 13.0001C-3.31016e-15 5.82033 5.82033 0 13.0001 0 20.1798-3.31016e-15 26.0001 5.82033 26.0001 13.0001 26.0001 20.1798 20.1798 26.0001 13.0001 26.0001 5.82033 26.0001-4.96525e-15 20.1798 0 13.0001Z" fill="#830B39" fill-rule="evenodd" transform="matrix(-1 0 0 1 738 1274)"/><path d="M0 13.0001C-3.31016e-15 5.82033 5.82033 0 13.0001 0 20.1798-3.31016e-15 26.0001 5.82033 26.0001 13.0001 26.0001 20.1798 20.1798 26.0001 13.0001 26.0001 5.82033 26.0001-4.96525e-15 20.1798 0 13.0001Z" fill="#830B39" fill-rule="evenodd" transform="matrix(-1 0 0 1 665 1274)"/><path d="M0 13.0001C-3.31016e-15 5.82033 5.82033 0 13.0001 0 20.1798-3.31016e-15 26.0001 5.82033 26.0001 13.0001 26.0001 20.1798 20.1798 26.0001 13.0001 26.0001 5.82033 26.0001-4.96525e-15 20.1798 0 13.0001Z" fill="#830B39" fill-rule="evenodd" transform="matrix(-1 0 0 1 665 1174)"/><path d="M0 13.0001C-3.31016e-15 5.82033 5.82033 0 13.0001 0 20.1798-3.31016e-15 26.0001 5.82033 26.0001 13.0001 26.0001 20.1798 20.1798 26.0001 13.0001 26.0001 5.82033 26.0001-4.96525e-15 20.1798 0 13.0001Z" fill="#D41159" fill-rule="evenodd" transform="matrix(-1 0 0 1 838 1123)"/><path d="M0 13.0001C-3.31016e-15 5.82033 5.82033 0 13.0001 0 20.1798-3.31016e-15 26.0001 5.82033 26.0001 13.0001 26.0001 20.1798 20.1798 26.0001 13.0001 26.0001 5.82033 26.0001-4.96525e-15 20.1798 0 13.0001Z" fill="#D41159" fill-rule="evenodd" transform="matrix(-1 0 0 1 860 1187)"/><path d="M0 13.0001C-3.31016e-15 5.82033 5.82033 0 13.0001 0 20.1798-3.31016e-15 26.0001 5.82033 26.0001 13.0001 26.0001 20.1798 20.1798 26.0001 13.0001 26.0001 5.82033 26.0001-4.96525e-15 20.1798 0 13.0001Z" fill="#D41159" fill-rule="evenodd" transform="matrix(-1 0 0 1 879 1272)"/><path d="M0 12.9999C-3.31016e-15 5.82025 5.82033 0 13.0001 0 20.1798-3.31012e-15 26.0001 5.82025 26.0001 12.9999 26.0001 20.1795 20.1798 25.9998 13.0001 25.9998 5.82033 25.9998-4.96525e-15 20.1795 0 12.9999Z" fill="#D41159" fill-rule="evenodd" transform="matrix(-1 0 0 1 836 1303)"/><path d="M0 13.0001C-3.31016e-15 5.82033 5.82033 0 13.0001 0 20.1798-3.31016e-15 26.0001 5.82033 26.0001 13.0001 26.0001 20.1798 20.1798 26.0001 13.0001 26.0001 5.82033 26.0001-4.96525e-15 20.1798 0 13.0001Z" fill="#D41159" fill-rule="evenodd" transform="matrix(-1 0 0 1 783 1337)"/><path d="M0 13.0001C-3.31016e-15 5.82033 5.82033 0 13.0001 0 20.1798-3.31016e-15 26.0001 5.82033 26.0001 13.0001 26.0001 20.1798 20.1798 26.0001 13.0001 26.0001 5.82033 26.0001-4.96525e-15 20.1798 0 13.0001Z" fill="#D41159" fill-rule="evenodd" transform="matrix(-1 0 0 1 728 1363)"/><path d="M0 12.9999C-3.31016e-15 5.82025 5.82033 0 13.0001 0 20.1798-3.31012e-15 26.0001 5.82025 26.0001 12.9999 26.0001 20.1795 20.1798 25.9998 13.0001 25.9998 5.82033 25.9998-4.96525e-15 20.1795 0 12.9999Z" fill="#D41159" fill-rule="evenodd" transform="matrix(-1 0 0 1 670 1311)"/><path d="M0 13.0001C-3.31016e-15 5.82033 5.82033 0 13.0001 0 20.1798-3.31016e-15 26.0001 5.82033 26.0001 13.0001 26.0001 20.1798 20.1798 26.0001 13.0001 26.0001 5.82033 26.0001-4.96525e-15 20.1798 0 13.0001Z" fill="#D41159" fill-rule="evenodd" transform="matrix(-1 0 0 1 639 1340)"/><path d="M0 13.0001C-3.31016e-15 5.82033 5.82033 0 13.0001 0 20.1798-3.31016e-15 26.0001 5.82033 26.0001 13.0001 26.0001 20.1798 20.1798 26.0001 13.0001 26.0001 5.82033 26.0001-4.96525e-15 20.1798 0 13.0001Z" fill="#D41159" fill-rule="evenodd" transform="matrix(-1 0 0 1 650 1120)"/><path d="M0 12.9999C-3.31016e-15 5.82025 5.82033 0 13.0001 0 20.1798-3.31012e-15 26.0001 5.82025 26.0001 12.9999 26.0001 20.1795 20.1798 25.9998 13.0001 25.9998 5.82033 25.9998-4.96525e-15 20.1795 0 12.9999Z" fill="#D41159" fill-rule="evenodd" transform="matrix(-1 0 0 1 616 1125)"/><path d="M0 13.0001C-3.31016e-15 5.82033 5.82033 0 13.0001 0 20.1798-3.31016e-15 26.0001 5.82033 26.0001 13.0001 26.0001 20.1798 20.1798 26.0001 13.0001 26.0001 5.82033 26.0001-4.96525e-15 20.1798 0 13.0001Z" fill="#D41159" fill-rule="evenodd" transform="matrix(-1 0 0 1 605 1066)"/><path d="M0 12.9999C-3.31012e-15 5.82025 5.82025 0 12.9999 0 20.1795-3.31012e-15 25.9998 5.82025 25.9998 12.9999 25.9998 20.1795 20.1795 25.9998 12.9999 25.9998 5.82025 25.9998-4.96518e-15 20.1795 0 12.9999Z" fill="#D41159" fill-rule="evenodd" transform="matrix(-1 0 0 1 602 1005)"/><path d="M0 12.9999C-3.31016e-15 5.82025 5.82033 0 13.0001 0 20.1798-3.31012e-15 26.0001 5.82025 26.0001 12.9999 26.0001 20.1795 20.1798 25.9998 13.0001 25.9998 5.82033 25.9998-4.96525e-15 20.1795 0 12.9999Z" fill="#D41159" fill-rule="evenodd" transform="matrix(-1 0 0 1 665 1047)"/><path d="M0 13.0001C-3.31016e-15 5.82033 5.82033 0 13.0001 0 20.1798-3.31016e-15 26.0001 5.82033 26.0001 13.0001 26.0001 20.1798 20.1798 26.0001 13.0001 26.0001 5.82033 26.0001-4.96525e-15 20.1798 0 13.0001Z" fill="#D41159" fill-rule="evenodd" transform="matrix(-1 0 0 1 740 1008)"/><path d="M0 13.0001C-3.31012e-15 5.82033 5.82025 0 12.9999 0 20.1795-3.31016e-15 25.9998 5.82033 25.9998 13.0001 25.9998 20.1798 20.1795 26.0001 12.9999 26.0001 5.82025 26.0001-4.96518e-15 20.1798 0 13.0001Z" fill="#D41159" fill-rule="evenodd" transform="matrix(-1 0 0 1 821 1029)"/><path d="M0 13.0001C-3.31016e-15 5.82033 5.82033 0 13.0001 0 20.1798-3.31016e-15 26.0001 5.82033 26.0001 13.0001 26.0001 20.1798 20.1798 26.0001 13.0001 26.0001 5.82033 26.0001-4.96525e-15 20.1798 0 13.0001Z" fill="#D41159" fill-rule="evenodd" transform="matrix(-1 0 0 1 813 1063)"/><path d="M0 13.0001C-3.31012e-15 5.82033 5.82025 0 12.9999 0 20.1795-3.31016e-15 25.9998 5.82033 25.9998 13.0001 25.9998 20.1798 20.1795 26.0001 12.9999 26.0001 5.82025 26.0001-4.96518e-15 20.1798 0 13.0001Z" fill="#D41159" fill-rule="evenodd" transform="matrix(-1 0 0 1 757 1099)"/><path d="M0 13.0001C-3.31016e-15 5.82033 5.82033 0 13.0001 0 20.1798-3.31016e-15 26.0001 5.82033 26.0001 13.0001 26.0001 20.1798 20.1798 26.0001 13.0001 26.0001 5.82033 26.0001-4.96525e-15 20.1798 0 13.0001Z" fill="#D41159" fill-rule="evenodd" transform="matrix(-1 0 0 1 753 1143)"/><path d="M0 12.9999C-3.31016e-15 5.82025 5.82033 0 13.0001 0 20.1798-3.31012e-15 26.0001 5.82025 26.0001 12.9999 26.0001 20.1795 20.1798 25.9998 13.0001 25.9998 5.82033 25.9998-4.96525e-15 20.1795 0 12.9999Z" fill="#D41159" fill-rule="evenodd" transform="matrix(-1 0 0 1 664 916)"/><path d="M0 12.9999C-3.31012e-15 5.82025 5.82025 0 12.9999 0 20.1795-3.31012e-15 25.9998 5.82025 25.9998 12.9999 25.9998 20.1795 20.1795 25.9998 12.9999 25.9998 5.82025 25.9998-4.96518e-15 20.1795 0 12.9999Z" fill="#D41159" fill-rule="evenodd" transform="matrix(-1 0 0 1 602 915)"/><path d="M695 967C695 959.82 700.82 954 708 954 715.18 954 721 959.82 721 967 721 974.18 715.18 980 708 980 700.82 980 695 974.18 695 967Z" fill="#D41159" fill-rule="evenodd"/><path d="M699 1233C699 1225.82 704.82 1220 712 1220 719.18 1220 725 1225.82 725 1233 725 1240.18 719.18 1246 712 1246 704.82 1246 699 1240.18 699 1233Z" fill="#D41159" fill-rule="evenodd"/><path d="M392.5 1528.5 708.5 1528.5 708.398 1528.56C661.46 1554.03 607.672 1568.5 550.5 1568.5 493.328 1568.5 439.54 1554.03 392.602 1528.56Z" stroke="#AFABAB" stroke-width="0" stroke-miterlimit="8" fill="#AFABAB" fill-rule="evenodd"/></g></svg>