<svg width="734" height="733" xmlns="http://www.w3.org/2000/svg" xmlns:xlink="http://www.w3.org/1999/xlink" overflow="hidden"><defs><clipPath id="clip0"><rect x="2383" y="871" width="734" height="733"/></clipPath></defs><g clip-path="url(#clip0)" transform="translate(-2383 -871)"><path d="M0 0 0.000360892 207.874" stroke="#BFBFBF" stroke-width="18.3333" stroke-linecap="round" stroke-miterlimit="8" fill="#D9D9D9" fill-rule="evenodd" transform="matrix(1 0 0 -1 2750 1554.87)"/><path d="M2553 1114 2749.62 1346.38" stroke="#BFBFBF" stroke-width="18.3333" stroke-linecap="round" stroke-miterlimit="8" fill="#D9D9D9" fill-rule="evenodd"/><path d="M0 0 67.375 13.0795" stroke="#BFBFBF" stroke-width="18.3333" stroke-linecap="round" stroke-miterlimit="8" fill="#D9D9D9" fill-rule="evenodd" transform="matrix(1 0 0 -1 2537 1189.08)"/><path d="M0 0 66.7579 81.9969" stroke="#BFBFBF" stroke-width="18.3333" stroke-linecap="round" stroke-miterlimit="8" fill="#D9D9D9" fill-rule="evenodd" transform="matrix(1 0 0 -1 2579 1145)"/><path d="M0 0 6.25787 19.0927" stroke="#BFBFBF" stroke-width="18.3333" stroke-linecap="round" stroke-miterlimit="8" fill="#D9D9D9" fill-rule="evenodd" transform="matrix(1 0 0 -1 2640 1213.09)"/><path d="M0 0 35.75 19.9375" stroke="#BFBFBF" stroke-width="18.3333" stroke-linecap="round" stroke-miterlimit="8" fill="#D9D9D9" fill-rule="evenodd" transform="matrix(1 0 0 -1 2648 1287.94)"/><path d="M2538 1283 2646.62 1288.5" stroke="#BFBFBF" stroke-width="18.3333" stroke-linecap="round" stroke-miterlimit="8" fill="#D9D9D9" fill-rule="evenodd"/><path d="M2608.82 1285.5 2595 1236" stroke="#BFBFBF" stroke-width="18.3333" stroke-linecap="round" stroke-miterlimit="8" fill="#D9D9D9" fill-rule="evenodd"/><path d="M0 0 74.5939 10.6106" stroke="#BFBFBF" stroke-width="18.3333" stroke-linecap="round" stroke-miterlimit="8" fill="#D9D9D9" fill-rule="evenodd" transform="matrix(1 0 0 -1 2629 1089.61)"/><path d="M0 0 23.4454 26.1254" stroke="#BFBFBF" stroke-width="18.3333" stroke-linecap="round" stroke-miterlimit="8" fill="#D9D9D9" fill-rule="evenodd" transform="matrix(1 0 0 -1 2666 1236.13)"/><path d="M2689.78 1209.56 2663 1136" stroke="#BFBFBF" stroke-width="18.3333" stroke-linecap="round" stroke-miterlimit="8" fill="#D9D9D9" fill-rule="evenodd"/><path d="M0 0 15.6977 29.4878" stroke="#BFBFBF" stroke-width="18.3333" stroke-linecap="round" stroke-miterlimit="8" fill="#D9D9D9" fill-rule="evenodd" transform="matrix(1 0 0 -1 2676 1170.49)"/><path d="M2570.93 1180.44 2561 1164" stroke="#BFBFBF" stroke-width="18.3333" stroke-linecap="round" stroke-miterlimit="8" fill="#D9D9D9" fill-rule="evenodd"/><path d="M0 0 51.7386 62.7422" stroke="#BFBFBF" stroke-width="18.3333" stroke-linecap="round" stroke-miterlimit="8" fill="#D9D9D9" fill-rule="evenodd" transform="matrix(-1 0 0 1 2581.74 1287)"/><path d="M2550 1329 2584.29 1370.76" stroke="#BFBFBF" stroke-width="18.3333" stroke-linecap="round" stroke-miterlimit="8" fill="#D9D9D9" fill-rule="evenodd"/><path d="M0 0 36.9839 50.4275" stroke="#BFBFBF" stroke-width="18.3333" stroke-linecap="round" stroke-miterlimit="8" fill="#D9D9D9" fill-rule="evenodd" transform="matrix(-1 0 0 1 2710.98 1301)"/><path d="M2690.07 1329.06 2645 1325" stroke="#BFBFBF" stroke-width="18.3333" stroke-linecap="round" stroke-miterlimit="8" fill="#D9D9D9" fill-rule="evenodd"/><path d="M2570.17 1283.18 2455 1201" stroke="#BFBFBF" stroke-width="18.3333" stroke-linecap="round" stroke-miterlimit="8" fill="#D9D9D9" fill-rule="evenodd"/><path d="M0 0 32.7434 64.0209" stroke="#BFBFBF" stroke-width="18.3333" stroke-linecap="round" stroke-miterlimit="8" fill="#D9D9D9" fill-rule="evenodd" transform="matrix(1 0 0 -1 2478 1211.02)"/><path d="M2495.39 1170.9 2475 1136" stroke="#BFBFBF" stroke-width="18.3333" stroke-linecap="round" stroke-miterlimit="8" fill="#D9D9D9" fill-rule="evenodd"/><path d="M0 0 71.4105 43.7827" stroke="#BFBFBF" stroke-width="18.3333" stroke-linecap="round" stroke-miterlimit="8" fill="#D9D9D9" fill-rule="evenodd" transform="matrix(-1 0 0 1 2508.41 1240)"/><path d="M2473 1264 2477.64 1315.93" stroke="#BFBFBF" stroke-width="18.3333" stroke-linecap="round" stroke-miterlimit="8" fill="#D9D9D9" fill-rule="evenodd"/><path d="M2613.25 1103.92 2571 1021" stroke="#BFBFBF" stroke-width="18.3333" stroke-linecap="round" stroke-miterlimit="8" fill="#D9D9D9" fill-rule="evenodd"/><path d="M2584.51 1049.86 2494 1043" stroke="#BFBFBF" stroke-width="18.3333" stroke-linecap="round" stroke-miterlimit="8" fill="#D9D9D9" fill-rule="evenodd"/><path d="M0 0 30.7968 30.3471" stroke="#BFBFBF" stroke-width="18.3333" stroke-linecap="round" stroke-miterlimit="8" fill="#D9D9D9" fill-rule="evenodd" transform="matrix(-1 0 0 1 2529.8 1048)"/><path d="M2683.82 1080.49 2650 934" stroke="#BFBFBF" stroke-width="18.3333" stroke-linecap="round" stroke-miterlimit="8" fill="#D9D9D9" fill-rule="evenodd"/><path d="M0 0 34.6309 24.8792" stroke="#BFBFBF" stroke-width="18.3333" stroke-linecap="round" stroke-miterlimit="8" fill="#D9D9D9" fill-rule="evenodd" transform="matrix(1 0 0 -1 2676 1045.88)"/><path d="M2663.23 992.344 2593 967" stroke="#BFBFBF" stroke-width="18.3333" stroke-linecap="round" stroke-miterlimit="8" fill="#D9D9D9" fill-rule="evenodd"/><path d="M0 0 38.8984 26.5967" stroke="#BFBFBF" stroke-width="18.3333" stroke-linecap="round" stroke-miterlimit="8" fill="#D9D9D9" fill-rule="evenodd" transform="matrix(1 0 0 -1 2665 954.597)"/><path d="M0 0 196.625 232.375" stroke="#BFBFBF" stroke-width="18.3333" stroke-linecap="round" stroke-miterlimit="8" fill="#D9D9D9" fill-rule="evenodd" transform="matrix(-1 0 0 1 2946.62 1114)"/><path d="M2962.38 1189.08 2895 1176" stroke="#BFBFBF" stroke-width="18.3333" stroke-linecap="round" stroke-miterlimit="8" fill="#D9D9D9" fill-rule="evenodd"/><path d="M2920.76 1145 2854 1063" stroke="#BFBFBF" stroke-width="18.3333" stroke-linecap="round" stroke-miterlimit="8" fill="#D9D9D9" fill-rule="evenodd"/><path d="M2860.26 1213.09 2854 1194" stroke="#BFBFBF" stroke-width="18.3333" stroke-linecap="round" stroke-miterlimit="8" fill="#D9D9D9" fill-rule="evenodd"/><path d="M2851.75 1287.94 2816 1268" stroke="#BFBFBF" stroke-width="18.3333" stroke-linecap="round" stroke-miterlimit="8" fill="#D9D9D9" fill-rule="evenodd"/><path d="M0 0 71.7923 3.63491" stroke="#BFBFBF" stroke-width="18.3333" stroke-linecap="round" stroke-miterlimit="8" fill="#D9D9D9" fill-rule="evenodd" transform="matrix(-1 0 0 1 2924.79 1284)"/><path d="M0 0 13.8204 49.5004" stroke="#BFBFBF" stroke-width="18.3333" stroke-linecap="round" stroke-miterlimit="8" fill="#D9D9D9" fill-rule="evenodd" transform="matrix(1 0 0 -1 2891 1285.5)"/><path d="M2870.59 1089.61 2796 1079" stroke="#BFBFBF" stroke-width="18.3333" stroke-linecap="round" stroke-miterlimit="8" fill="#D9D9D9" fill-rule="evenodd"/><path d="M2833.45 1236.13 2810 1210" stroke="#BFBFBF" stroke-width="18.3333" stroke-linecap="round" stroke-miterlimit="8" fill="#D9D9D9" fill-rule="evenodd"/><path d="M0 0 26.7771 73.5621" stroke="#BFBFBF" stroke-width="18.3333" stroke-linecap="round" stroke-miterlimit="8" fill="#D9D9D9" fill-rule="evenodd" transform="matrix(1 0 0 -1 2810 1209.56)"/><path d="M2823.7 1170.49 2808 1141" stroke="#BFBFBF" stroke-width="18.3333" stroke-linecap="round" stroke-miterlimit="8" fill="#D9D9D9" fill-rule="evenodd"/><path d="M0 0 9.93356 16.4433" stroke="#BFBFBF" stroke-width="18.3333" stroke-linecap="round" stroke-miterlimit="8" fill="#D9D9D9" fill-rule="evenodd" transform="matrix(1 0 0 -1 2929 1180.44)"/><path d="M2918 1287 2969.74 1349.74" stroke="#BFBFBF" stroke-width="18.3333" stroke-linecap="round" stroke-miterlimit="8" fill="#D9D9D9" fill-rule="evenodd"/><path d="M0 0 34.2859 41.7596" stroke="#BFBFBF" stroke-width="18.3333" stroke-linecap="round" stroke-miterlimit="8" fill="#D9D9D9" fill-rule="evenodd" transform="matrix(-1 0 0 1 2949.29 1329)"/><path d="M2789 1301 2825.98 1351.43" stroke="#BFBFBF" stroke-width="18.3333" stroke-linecap="round" stroke-miterlimit="8" fill="#D9D9D9" fill-rule="evenodd"/><path d="M0 0 45.0664 4.05679" stroke="#BFBFBF" stroke-width="18.3333" stroke-linecap="round" stroke-miterlimit="8" fill="#D9D9D9" fill-rule="evenodd" transform="matrix(1 0 0 -1 2810 1329.06)"/><path d="M0 0 115.171 82.1781" stroke="#BFBFBF" stroke-width="18.3333" stroke-linecap="round" stroke-miterlimit="8" fill="#D9D9D9" fill-rule="evenodd" transform="matrix(1 0 0 -1 2929 1283.18)"/><path d="M3021.74 1211.02 2989 1147" stroke="#BFBFBF" stroke-width="18.3333" stroke-linecap="round" stroke-miterlimit="8" fill="#D9D9D9" fill-rule="evenodd"/><path d="M0 0 20.3944 34.9005" stroke="#BFBFBF" stroke-width="18.3333" stroke-linecap="round" stroke-miterlimit="8" fill="#D9D9D9" fill-rule="evenodd" transform="matrix(1 0 0 -1 3004 1170.9)"/><path d="M2991 1240 3062.41 1283.78" stroke="#BFBFBF" stroke-width="18.3333" stroke-linecap="round" stroke-miterlimit="8" fill="#D9D9D9" fill-rule="evenodd"/><path d="M0 0 4.64324 51.9299" stroke="#BFBFBF" stroke-width="18.3333" stroke-linecap="round" stroke-miterlimit="8" fill="#D9D9D9" fill-rule="evenodd" transform="matrix(-1 0 0 1 3026.64 1264)"/><path d="M0 0 42.2461 82.9215" stroke="#BFBFBF" stroke-width="18.3333" stroke-linecap="round" stroke-miterlimit="8" fill="#D9D9D9" fill-rule="evenodd" transform="matrix(1 0 0 -1 2887 1103.92)"/><path d="M0 0 90.5078 6.8602" stroke="#BFBFBF" stroke-width="18.3333" stroke-linecap="round" stroke-miterlimit="8" fill="#D9D9D9" fill-rule="evenodd" transform="matrix(1 0 0 -1 2915 1049.86)"/><path d="M2970 1048 3000.8 1078.35" stroke="#BFBFBF" stroke-width="18.3333" stroke-linecap="round" stroke-miterlimit="8" fill="#D9D9D9" fill-rule="evenodd"/><path d="M0 0 33.816 146.495" stroke="#BFBFBF" stroke-width="18.3333" stroke-linecap="round" stroke-miterlimit="8" fill="#D9D9D9" fill-rule="evenodd" transform="matrix(1 0 0 -1 2816 1080.49)"/><path d="M2823.63 1045.88 2789 1021" stroke="#BFBFBF" stroke-width="18.3333" stroke-linecap="round" stroke-miterlimit="8" fill="#D9D9D9" fill-rule="evenodd"/><path d="M0 0 70.2304 25.3444" stroke="#BFBFBF" stroke-width="18.3333" stroke-linecap="round" stroke-miterlimit="8" fill="#D9D9D9" fill-rule="evenodd" transform="matrix(1 0 0 -1 2837 992.344)"/><path d="M2834.9 954.597 2796 928" stroke="#BFBFBF" stroke-width="18.3333" stroke-linecap="round" stroke-miterlimit="8" fill="#D9D9D9" fill-rule="evenodd"/><path d="M0 0 0.000360892 73.8007" stroke="#0052AC" stroke-width="13.75" stroke-linecap="round" stroke-miterlimit="8" fill="none" fill-rule="evenodd" transform="matrix(1 0 0 -1 2537 1273.8)"/><path d="M2583.7 1223.55 2547 1196" stroke="#0052AC" stroke-width="13.75" stroke-linecap="round" stroke-miterlimit="8" fill="none" fill-rule="evenodd"/><path d="M0 0 36.6966 27.548" stroke="#0052AC" stroke-width="13.75" stroke-linecap="round" stroke-miterlimit="8" fill="none" fill-rule="evenodd" transform="matrix(-1 0 0 1 2638.7 1196)"/><path d="M2648 1200 2648 1273.8" stroke="#0052AC" stroke-width="13.75" stroke-linecap="round" stroke-miterlimit="8" fill="none" fill-rule="evenodd"/><path d="M0 0 40.4611 33.1025" stroke="#4472C4" stroke-width="4.58333" stroke-linecap="round" stroke-miterlimit="8" fill="none" fill-rule="evenodd" transform="matrix(-1 0 0 1 2701.96 1027.5)"/><path d="M2853 1200 2853 1273.8" stroke="#830B39" stroke-width="13.75" stroke-linecap="round" stroke-miterlimit="8" fill="none" fill-rule="evenodd"/><path d="M0 0 46.7031 0.000360892" stroke="#830B39" stroke-width="13.75" stroke-linecap="round" stroke-miterlimit="8" fill="none" fill-rule="evenodd" transform="matrix(-1 0 0 1 2912.7 1287)"/><path d="M2813.5 1147.5 2844.15 1178.23" stroke="#D41159" stroke-width="4.58333" stroke-linecap="round" stroke-miterlimit="8" fill="none" fill-rule="evenodd"/><path d="M0 0 72.9511 56.2584" stroke="#D41159" stroke-width="4.58333" stroke-linecap="round" stroke-miterlimit="8" fill="none" fill-rule="evenodd" transform="matrix(-1 0 0 1 2935.45 1121.5)"/><path d="M0 0 14.2473 47.0145" stroke="#D41159" stroke-width="4.58333" stroke-linecap="round" stroke-miterlimit="8" fill="none" fill-rule="evenodd" transform="matrix(-1 0 0 1 2852.75 1073.5)"/><path d="M0 0 34.0794 18.4716" stroke="#D41159" stroke-width="4.58333" stroke-linecap="round" stroke-miterlimit="8" fill="none" fill-rule="evenodd" transform="matrix(1 0 0 -1 2805.5 1078.97)"/><path d="M2990.95 1067.27 2936.5 1030.5" stroke="#D41159" stroke-width="4.58333" stroke-linecap="round" stroke-miterlimit="8" fill="none" fill-rule="evenodd"/><path d="M2865.5 1060.5 2935.37 1103.26" stroke="#D41159" stroke-width="4.58333" stroke-linecap="round" stroke-miterlimit="8" fill="none" fill-rule="evenodd"/><path d="M3000.5 1089.5 3016.87 1126.49" stroke="#D41159" stroke-width="4.58333" stroke-linecap="round" stroke-miterlimit="8" fill="none" fill-rule="evenodd"/><path d="M0 0 7.70397 8.76211" stroke="#D41159" stroke-width="4.58333" stroke-linecap="round" stroke-miterlimit="8" fill="none" fill-rule="evenodd" transform="matrix(-1 0 0 1 3008.2 1055.5)"/><path d="M2957.5 1112.5 3013.29 1135.74" stroke="#D41159" stroke-width="4.58333" stroke-linecap="round" stroke-miterlimit="8" fill="none" fill-rule="evenodd"/><path d="M3026.5 1149.5 3048.11 1187.68" stroke="#D41159" stroke-width="4.58333" stroke-linecap="round" stroke-miterlimit="8" fill="none" fill-rule="evenodd"/><path d="M2934.5 1296.5 3009.92 1316.66" stroke="#D41159" stroke-width="4.58333" stroke-linecap="round" stroke-miterlimit="8" fill="none" fill-rule="evenodd"/><path d="M0 0 20.7892 21.5402" stroke="#D41159" stroke-width="4.58333" stroke-linecap="round" stroke-miterlimit="8" fill="none" fill-rule="evenodd" transform="matrix(1 0 0 -1 3032.5 1307.04)"/><path d="M0 0 0.891043 66.6157" stroke="#D41159" stroke-width="4.58333" stroke-linecap="round" stroke-miterlimit="8" fill="none" fill-rule="evenodd" transform="matrix(-1 0 0 1 2916.39 1296.5)"/><path d="M0 0 32.4468 16.5577" stroke="#D41159" stroke-width="4.58333" stroke-linecap="round" stroke-miterlimit="8" fill="none" fill-rule="evenodd" transform="matrix(1 0 0 -1 2928.5 1376.06)"/><path d="M2853.5 1300.5 2857.95 1311.58" stroke="#D41159" stroke-width="4.58333" stroke-linecap="round" stroke-miterlimit="8" fill="none" fill-rule="evenodd"/><path d="M2803.5 1151.5 2825.82 1340.94" stroke="#D41159" stroke-width="4.58333" stroke-linecap="round" stroke-miterlimit="8" fill="none" fill-rule="evenodd"/><path d="M2949.5 1166.5 3022.89 1303.95" stroke="#D41159" stroke-width="4.58333" stroke-linecap="round" stroke-miterlimit="8" fill="none" fill-rule="evenodd"/><path d="M0 0 43.1584 70.3249" stroke="#D41159" stroke-width="4.58333" stroke-linecap="round" stroke-miterlimit="8" fill="none" fill-rule="evenodd" transform="matrix(1 0 0 -1 2798.5 1009.82)"/><path d="M2802.5 1018.5 2914.6 1021.66" stroke="#D41159" stroke-width="4.58333" stroke-linecap="round" stroke-miterlimit="8" fill="none" fill-rule="evenodd"/><path d="M2860.5 939.5 2900.07 958.838" stroke="#D41159" stroke-width="4.58333" stroke-linecap="round" stroke-miterlimit="8" fill="none" fill-rule="evenodd"/><path d="M0 0 0.000360892 64.3038" stroke="#D41159" stroke-width="4.58333" stroke-linecap="round" stroke-miterlimit="8" fill="none" fill-rule="evenodd" transform="matrix(1 0 0 -1 2789.5 1005.8)"/><path d="M0 0 18.6964 54.197" stroke="#D41159" stroke-width="4.58333" stroke-linecap="round" stroke-miterlimit="8" fill="none" fill-rule="evenodd" transform="matrix(1 0 0 -1 2912.5 1220.7)"/><path d="M2392 1237.5C2392 1040.06 2552.28 880 2750 880 2947.72 880 3108 1040.06 3108 1237.5 3108 1434.94 2947.72 1595 2750 1595 2552.28 1595 2392 1434.94 2392 1237.5Z" stroke="#000000" stroke-width="18.3333" stroke-miterlimit="8" fill="none" fill-rule="evenodd"/><path d="M0 0 84.9887 80.0261" stroke="#1A85FF" stroke-width="4.58333" stroke-linecap="round" stroke-miterlimit="8" fill="none" fill-rule="evenodd" transform="matrix(-1 0 0 1 2528.49 1196.5)"/><path d="M2468.09 1307.85 2443.5 1295.5" stroke="#1A85FF" stroke-width="4.58333" stroke-linecap="round" stroke-miterlimit="8" fill="none" fill-rule="evenodd"/><path d="M0 0 7.34777 37.0658" stroke="#1A85FF" stroke-width="4.58333" stroke-linecap="round" stroke-miterlimit="8" fill="none" fill-rule="evenodd" transform="matrix(1 0 0 -1 2530.5 1337.57)"/><path d="M2629.95 1324.57 2550.5 1287.5" stroke="#1A85FF" stroke-width="4.58333" stroke-linecap="round" stroke-miterlimit="8" fill="none" fill-rule="evenodd"/><path d="M0 0 39.7812 33.3551" stroke="#1A85FF" stroke-width="4.58333" stroke-linecap="round" stroke-miterlimit="8" fill="none" fill-rule="evenodd" transform="matrix(1 0 0 -1 2594.5 1366.85)"/><path d="M2665.29 1344.6 2652.5 1333.5" stroke="#1A85FF" stroke-width="4.58333" stroke-linecap="round" stroke-miterlimit="8" fill="none" fill-rule="evenodd"/><path d="M0 0 85.0162 69.0301" stroke="#1A85FF" stroke-width="4.58333" stroke-linecap="round" stroke-miterlimit="8" fill="none" fill-rule="evenodd" transform="matrix(-1 0 0 1 2547.52 1121.5)"/><path d="M0 0 59.5985 14.0492" stroke="#1A85FF" stroke-width="4.58333" stroke-linecap="round" stroke-miterlimit="8" fill="none" fill-rule="evenodd" transform="matrix(-1 0 0 1 2543.1 1112.5)"/><path d="M0 0 16.3708 36.9897" stroke="#1A85FF" stroke-width="4.58333" stroke-linecap="round" stroke-miterlimit="8" fill="none" fill-rule="evenodd" transform="matrix(1 0 0 -1 2474.5 1123.49)"/><path d="M0 0 76.6882 23.0718" stroke="#1A85FF" stroke-width="4.58333" stroke-linecap="round" stroke-miterlimit="8" fill="none" fill-rule="evenodd" transform="matrix(-1 0 0 1 2650.19 1133.5)"/><path d="M0 0 14.719 27.5935" stroke="#1A85FF" stroke-width="4.58333" stroke-linecap="round" stroke-miterlimit="8" fill="none" fill-rule="evenodd" transform="matrix(-1 0 0 1 2663.22 1146.5)"/><path d="M0 0 39.5856 126.709" stroke="#1A85FF" stroke-width="4.58333" stroke-linecap="round" stroke-miterlimit="8" fill="none" fill-rule="evenodd" transform="matrix(1 0 0 -1 2657.5 1278.21)"/><path d="M2662.75 1120.51 2648.5 1073.5" stroke="#1A85FF" stroke-width="4.58333" stroke-linecap="round" stroke-miterlimit="8" fill="none" fill-rule="evenodd"/><path d="M0 0 27.4426 36.1535" stroke="#1A85FF" stroke-width="4.58333" stroke-linecap="round" stroke-miterlimit="8" fill="none" fill-rule="evenodd" transform="matrix(1 0 0 -1 2671.5 1124.65)"/><path d="M2653.35 1124.86 2501.5 1051.5" stroke="#1A85FF" stroke-width="4.58333" stroke-linecap="round" stroke-miterlimit="8" fill="none" fill-rule="evenodd"/><path d="M0 0 58.3502 11.2079" stroke="#1A85FF" stroke-width="4.58333" stroke-linecap="round" stroke-miterlimit="8" fill="none" fill-rule="evenodd" transform="matrix(-1 0 0 1 2559.85 1021.5)"/><path d="M2605.5 976.5 2638.96 1051.45" stroke="#1A85FF" stroke-width="4.58333" stroke-linecap="round" stroke-miterlimit="8" fill="none" fill-rule="evenodd"/><path d="M0 0 40.4611 33.1025" stroke="#1A85FF" stroke-width="4.58333" stroke-linecap="round" stroke-miterlimit="8" fill="none" fill-rule="evenodd" transform="matrix(-1 0 0 1 2701.96 1027.5)"/><path d="M0 0 1.10794 105.004" stroke="#1A85FF" stroke-width="4.58333" stroke-linecap="round" stroke-miterlimit="8" fill="none" fill-rule="evenodd" transform="matrix(-1 0 0 1 2649.61 942.5)"/><path d="M0 0 35.5479 1.58937" stroke="#1A85FF" stroke-width="4.58333" stroke-linecap="round" stroke-miterlimit="8" fill="none" fill-rule="evenodd" transform="matrix(1 0 0 -1 2662.5 930.089)"/><path d="M2560.12 1143.64 2556.5 1125.5" stroke="#1A85FF" stroke-width="4.58333" stroke-linecap="round" stroke-miterlimit="8" fill="none" fill-rule="evenodd"/><path d="M2524 1287C2524 1279.82 2529.82 1274 2537 1274 2544.18 1274 2550 1279.82 2550 1287 2550 1294.18 2544.18 1300 2537 1300 2529.82 1300 2524 1294.18 2524 1287Z" fill="#0052AC" fill-rule="evenodd"/><path d="M2579 1233C2579 1225.82 2584.82 1220 2592 1220 2599.18 1220 2605 1225.82 2605 1233 2605 1240.18 2599.18 1246 2592 1246 2584.82 1246 2579 1240.18 2579 1233Z" fill="#0052AC" fill-rule="evenodd"/><path d="M2635 1287C2635 1279.82 2640.6 1274 2647.5 1274 2654.4 1274 2660 1279.82 2660 1287 2660 1294.18 2654.4 1300 2647.5 1300 2640.6 1300 2635 1294.18 2635 1287Z" fill="#0052AC" fill-rule="evenodd"/><path d="M2524 1187C2524 1179.82 2529.82 1174 2537 1174 2544.18 1174 2550 1179.82 2550 1187 2550 1194.18 2544.18 1200 2537 1200 2529.82 1200 2524 1194.18 2524 1187Z" fill="#0052AC" fill-rule="evenodd"/><path d="M2635 1187C2635 1179.82 2640.6 1174 2647.5 1174 2654.4 1174 2660 1179.82 2660 1187 2660 1194.18 2654.4 1200 2647.5 1200 2640.6 1200 2635 1194.18 2635 1187Z" fill="#0052AC" fill-rule="evenodd"/><path d="M2461 1136C2461 1128.82 2466.82 1123 2474 1123 2481.18 1123 2487 1128.82 2487 1136 2487 1143.18 2481.18 1149 2474 1149 2466.82 1149 2461 1143.18 2461 1136Z" fill="#1A85FF" fill-rule="evenodd"/><path d="M2440 1200C2440 1192.82 2445.82 1187 2453 1187 2460.18 1187 2466 1192.82 2466 1200 2466 1207.18 2460.18 1213 2453 1213 2445.82 1213 2440 1207.18 2440 1200Z" fill="#1A85FF" fill-rule="evenodd"/><path d="M2421 1285C2421 1277.82 2426.82 1272 2434 1272 2441.18 1272 2447 1277.82 2447 1285 2447 1292.18 2441.18 1298 2434 1298 2426.82 1298 2421 1292.18 2421 1285Z" fill="#1A85FF" fill-rule="evenodd"/><path d="M2464 1316C2464 1308.82 2469.82 1303 2477 1303 2484.18 1303 2490 1308.82 2490 1316 2490 1323.18 2484.18 1329 2477 1329 2469.82 1329 2464 1323.18 2464 1316Z" fill="#1A85FF" fill-rule="evenodd"/><path d="M2517 1350C2517 1342.82 2522.82 1337 2530 1337 2537.18 1337 2543 1342.82 2543 1350 2543 1357.18 2537.18 1363 2530 1363 2522.82 1363 2517 1357.18 2517 1350Z" fill="#1A85FF" fill-rule="evenodd"/><path d="M2572 1376C2572 1368.82 2577.82 1363 2585 1363 2592.18 1363 2598 1368.82 2598 1376 2598 1383.18 2592.18 1389 2585 1389 2577.82 1389 2572 1383.18 2572 1376Z" fill="#1A85FF" fill-rule="evenodd"/><path d="M2630 1324C2630 1316.82 2635.82 1311 2643 1311 2650.18 1311 2656 1316.82 2656 1324 2656 1331.18 2650.18 1337 2643 1337 2635.82 1337 2630 1331.18 2630 1324Z" fill="#1A85FF" fill-rule="evenodd"/><path d="M2661 1353C2661 1345.82 2666.82 1340 2674 1340 2681.18 1340 2687 1345.82 2687 1353 2687 1360.18 2681.18 1366 2674 1366 2666.82 1366 2661 1360.18 2661 1353Z" fill="#1A85FF" fill-rule="evenodd"/><path d="M2649 1133C2649 1125.82 2654.82 1120 2662 1120 2669.18 1120 2675 1125.82 2675 1133 2675 1140.18 2669.18 1146 2662 1146 2654.82 1146 2649 1140.18 2649 1133Z" fill="#1A85FF" fill-rule="evenodd"/><path d="M2683 1138C2683 1130.82 2688.82 1125 2696 1125 2703.18 1125 2709 1130.82 2709 1138 2709 1145.18 2703.18 1151 2696 1151 2688.82 1151 2683 1145.18 2683 1138Z" fill="#1A85FF" fill-rule="evenodd"/><path d="M2695 1079C2695 1071.82 2700.82 1066 2708 1066 2715.18 1066 2721 1071.82 2721 1079 2721 1086.18 2715.18 1092 2708 1092 2700.82 1092 2695 1086.18 2695 1079Z" fill="#1A85FF" fill-rule="evenodd"/><path d="M2698 1018C2698 1010.82 2703.82 1005 2711 1005 2718.18 1005 2724 1010.82 2724 1018 2724 1025.18 2718.18 1031 2711 1031 2703.82 1031 2698 1025.18 2698 1018Z" fill="#1A85FF" fill-rule="evenodd"/><path d="M2635 1060C2635 1052.82 2640.82 1047 2648 1047 2655.18 1047 2661 1052.82 2661 1060 2661 1067.18 2655.18 1073 2648 1073 2640.82 1073 2635 1067.18 2635 1060Z" fill="#1A85FF" fill-rule="evenodd"/><path d="M2560 1021C2560 1013.82 2565.82 1008 2573 1008 2580.18 1008 2586 1013.82 2586 1021 2586 1028.18 2580.18 1034 2573 1034 2565.82 1034 2560 1028.18 2560 1021Z" fill="#1A85FF" fill-rule="evenodd"/><path d="M2479 1042C2479 1034.82 2484.82 1029 2492 1029 2499.18 1029 2505 1034.82 2505 1042 2505 1049.18 2499.18 1055 2492 1055 2484.82 1055 2479 1049.18 2479 1042Z" fill="#1A85FF" fill-rule="evenodd"/><path d="M2487 1076C2487 1068.82 2492.82 1063 2500 1063 2507.18 1063 2513 1068.82 2513 1076 2513 1083.18 2507.18 1089 2500 1089 2492.82 1089 2487 1083.18 2487 1076Z" fill="#1A85FF" fill-rule="evenodd"/><path d="M2543 1112C2543 1104.82 2548.82 1099 2556 1099 2563.18 1099 2569 1104.82 2569 1112 2569 1119.18 2563.18 1125 2556 1125 2548.82 1125 2543 1119.18 2543 1112Z" fill="#1A85FF" fill-rule="evenodd"/><path d="M2547 1156C2547 1148.82 2552.82 1143 2560 1143 2567.18 1143 2573 1148.82 2573 1156 2573 1163.18 2567.18 1169 2560 1169 2552.82 1169 2547 1163.18 2547 1156Z" fill="#1A85FF" fill-rule="evenodd"/><path d="M2636 929C2636 921.82 2641.82 916 2649 916 2656.18 916 2662 921.82 2662 929 2662 936.18 2656.18 942 2649 942 2641.82 942 2636 936.18 2636 929Z" fill="#1A85FF" fill-rule="evenodd"/><path d="M2698 928C2698 920.82 2703.82 915 2711 915 2718.18 915 2724 920.82 2724 928 2724 935.18 2718.18 941 2711 941 2703.82 941 2698 935.18 2698 928Z" fill="#1A85FF" fill-rule="evenodd"/><path d="M2583 967C2583 959.82 2588.82 954 2596 954 2603.18 954 2609 959.82 2609 967 2609 974.18 2603.18 980 2596 980 2588.82 980 2583 974.18 2583 967Z" fill="#1A85FF" fill-rule="evenodd"/><path d="M0 13.0001C-3.31016e-15 5.82033 5.82033 0 13.0001 0 20.1798-3.31016e-15 26.0001 5.82033 26.0001 13.0001 26.0001 20.1798 20.1798 26.0001 13.0001 26.0001 5.82033 26.0001-4.96525e-15 20.1798 0 13.0001Z" fill="#830B39" fill-rule="evenodd" transform="matrix(-1 0 0 1 2938 1274)"/><path d="M0 13.0001C-3.31012e-15 5.82033 5.82025 0 12.9999 0 20.1795-3.31016e-15 25.9998 5.82033 25.9998 13.0001 25.9998 20.1798 20.1795 26.0001 12.9999 26.0001 5.82025 26.0001-4.96518e-15 20.1798 0 13.0001Z" fill="#830B39" fill-rule="evenodd" transform="matrix(-1 0 0 1 2866 1274)"/><path d="M0 13.0001C-3.31012e-15 5.82033 5.82025 0 12.9999 0 20.1795-3.31016e-15 25.9998 5.82033 25.9998 13.0001 25.9998 20.1798 20.1795 26.0001 12.9999 26.0001 5.82025 26.0001-4.96518e-15 20.1798 0 13.0001Z" fill="#830B39" fill-rule="evenodd" transform="matrix(-1 0 0 1 2866 1174)"/><path d="M0 13.0001C-3.31016e-15 5.82033 5.82033 0 13.0001 0 20.1798-3.31016e-15 26.0001 5.82033 26.0001 13.0001 26.0001 20.1798 20.1798 26.0001 13.0001 26.0001 5.82033 26.0001-4.96525e-15 20.1798 0 13.0001Z" fill="#D41159" fill-rule="evenodd" transform="matrix(-1 0 0 1 3039 1123)"/><path d="M0 13.0001C-3.31016e-15 5.82033 5.82033 0 13.0001 0 20.1798-3.31016e-15 26.0001 5.82033 26.0001 13.0001 26.0001 20.1798 20.1798 26.0001 13.0001 26.0001 5.82033 26.0001-4.96525e-15 20.1798 0 13.0001Z" fill="#D41159" fill-rule="evenodd" transform="matrix(-1 0 0 1 3060 1187)"/><path d="M0 13.0001C-3.31016e-15 5.82033 5.82033 0 13.0001 0 20.1798-3.31016e-15 26.0001 5.82033 26.0001 13.0001 26.0001 20.1798 20.1798 26.0001 13.0001 26.0001 5.82033 26.0001-4.96525e-15 20.1798 0 13.0001Z" fill="#D41159" fill-rule="evenodd" transform="matrix(-1 0 0 1 3079 1272)"/><path d="M0 12.9999C-3.31016e-15 5.82025 5.82033 0 13.0001 0 20.1798-3.31012e-15 26.0001 5.82025 26.0001 12.9999 26.0001 20.1795 20.1798 25.9998 13.0001 25.9998 5.82033 25.9998-4.96525e-15 20.1795 0 12.9999Z" fill="#D41159" fill-rule="evenodd" transform="matrix(-1 0 0 1 3036 1303)"/><path d="M0 13.0001C-3.31016e-15 5.82033 5.82033 0 13.0001 0 20.1798-3.31016e-15 26.0001 5.82033 26.0001 13.0001 26.0001 20.1798 20.1798 26.0001 13.0001 26.0001 5.82033 26.0001-4.96525e-15 20.1798 0 13.0001Z" fill="#D41159" fill-rule="evenodd" transform="matrix(-1 0 0 1 2983 1337)"/><path d="M0 13.0001C-3.31016e-15 5.82033 5.82033 0 13.0001 0 20.1798-3.31016e-15 26.0001 5.82033 26.0001 13.0001 26.0001 20.1798 20.1798 26.0001 13.0001 26.0001 5.82033 26.0001-4.96525e-15 20.1798 0 13.0001Z" fill="#D41159" fill-rule="evenodd" transform="matrix(-1 0 0 1 2928 1363)"/><path d="M0 12.9999C-3.31016e-15 5.82025 5.82033 0 13.0001 0 20.1798-3.31012e-15 26.0001 5.82025 26.0001 12.9999 26.0001 20.1795 20.1798 25.9998 13.0001 25.9998 5.82033 25.9998-4.96525e-15 20.1795 0 12.9999Z" fill="#D41159" fill-rule="evenodd" transform="matrix(-1 0 0 1 2870 1311)"/><path d="M0 13.0001C-3.31016e-15 5.82033 5.82033 0 13.0001 0 20.1798-3.31016e-15 26.0001 5.82033 26.0001 13.0001 26.0001 20.1798 20.1798 26.0001 13.0001 26.0001 5.82033 26.0001-4.96525e-15 20.1798 0 13.0001Z" fill="#D41159" fill-rule="evenodd" transform="matrix(-1 0 0 1 2839 1340)"/><path d="M0 13.0001C-3.31016e-15 5.82033 5.82033 0 13.0001 0 20.1798-3.31016e-15 26.0001 5.82033 26.0001 13.0001 26.0001 20.1798 20.1798 26.0001 13.0001 26.0001 5.82033 26.0001-4.96525e-15 20.1798 0 13.0001Z" fill="#D41159" fill-rule="evenodd" transform="matrix(-1 0 0 1 2851 1120)"/><path d="M0 12.9999C-3.31016e-15 5.82025 5.82033 0 13.0001 0 20.1798-3.31012e-15 26.0001 5.82025 26.0001 12.9999 26.0001 20.1795 20.1798 25.9998 13.0001 25.9998 5.82033 25.9998-4.96525e-15 20.1795 0 12.9999Z" fill="#D41159" fill-rule="evenodd" transform="matrix(-1 0 0 1 2816 1125)"/><path d="M0 13.0001C-3.31016e-15 5.82033 5.82033 0 13.0001 0 20.1798-3.31016e-15 26.0001 5.82033 26.0001 13.0001 26.0001 20.1798 20.1798 26.0001 13.0001 26.0001 5.82033 26.0001-4.96525e-15 20.1798 0 13.0001Z" fill="#D41159" fill-rule="evenodd" transform="matrix(-1 0 0 1 2805 1066)"/><path d="M0 12.9999C-3.31012e-15 5.82025 5.82025 0 12.9999 0 20.1795-3.31012e-15 25.9998 5.82025 25.9998 12.9999 25.9998 20.1795 20.1795 25.9998 12.9999 25.9998 5.82025 25.9998-4.96518e-15 20.1795 0 12.9999Z" fill="#D41159" fill-rule="evenodd" transform="matrix(-1 0 0 1 2802 1005)"/><path d="M0 12.9999C-3.31016e-15 5.82025 5.82033 0 13.0001 0 20.1798-3.31012e-15 26.0001 5.82025 26.0001 12.9999 26.0001 20.1795 20.1798 25.9998 13.0001 25.9998 5.82033 25.9998-4.96525e-15 20.1795 0 12.9999Z" fill="#D41159" fill-rule="evenodd" transform="matrix(-1 0 0 1 2865 1047)"/><path d="M0 13.0001C-3.31016e-15 5.82033 5.82033 0 13.0001 0 20.1798-3.31016e-15 26.0001 5.82033 26.0001 13.0001 26.0001 20.1798 20.1798 26.0001 13.0001 26.0001 5.82033 26.0001-4.96525e-15 20.1798 0 13.0001Z" fill="#D41159" fill-rule="evenodd" transform="matrix(-1 0 0 1 2940 1008)"/><path d="M0 13.0001C-3.31012e-15 5.82033 5.82025 0 12.9999 0 20.1795-3.31016e-15 25.9998 5.82033 25.9998 13.0001 25.9998 20.1798 20.1795 26.0001 12.9999 26.0001 5.82025 26.0001-4.96518e-15 20.1798 0 13.0001Z" fill="#D41159" fill-rule="evenodd" transform="matrix(-1 0 0 1 3021 1029)"/><path d="M0 13.0001C-3.31016e-15 5.82033 5.82033 0 13.0001 0 20.1798-3.31016e-15 26.0001 5.82033 26.0001 13.0001 26.0001 20.1798 20.1798 26.0001 13.0001 26.0001 5.82033 26.0001-4.96525e-15 20.1798 0 13.0001Z" fill="#D41159" fill-rule="evenodd" transform="matrix(-1 0 0 1 3013 1063)"/><path d="M0 13.0001C-3.31012e-15 5.82033 5.82025 0 12.9999 0 20.1795-3.31016e-15 25.9998 5.82033 25.9998 13.0001 25.9998 20.1798 20.1795 26.0001 12.9999 26.0001 5.82025 26.0001-4.96518e-15 20.1798 0 13.0001Z" fill="#D41159" fill-rule="evenodd" transform="matrix(-1 0 0 1 2957 1099)"/><path d="M0 13.0001C-3.31016e-15 5.82033 5.82033 0 13.0001 0 20.1798-3.31016e-15 26.0001 5.82033 26.0001 13.0001 26.0001 20.1798 20.1798 26.0001 13.0001 26.0001 5.82033 26.0001-4.96525e-15 20.1798 0 13.0001Z" fill="#D41159" fill-rule="evenodd" transform="matrix(-1 0 0 1 2953 1143)"/><path d="M0 12.9999C-3.31016e-15 5.82025 5.82033 0 13.0001 0 20.1798-3.31012e-15 26.0001 5.82025 26.0001 12.9999 26.0001 20.1795 20.1798 25.9998 13.0001 25.9998 5.82033 25.9998-4.96525e-15 20.1795 0 12.9999Z" fill="#D41159" fill-rule="evenodd" transform="matrix(-1 0 0 1 2864 916)"/><path d="M0 12.9999C-3.31012e-15 5.82025 5.82025 0 12.9999 0 20.1795-3.31012e-15 25.9998 5.82025 25.9998 12.9999 25.9998 20.1795 20.1795 25.9998 12.9999 25.9998 5.82025 25.9998-4.96518e-15 20.1795 0 12.9999Z" fill="#D41159" fill-rule="evenodd" transform="matrix(-1 0 0 1 2802 915)"/><path d="M2896 967C2896 959.82 2901.82 954 2909 954 2916.18 954 2922 959.82 2922 967 2922 974.18 2916.18 980 2909 980 2901.82 980 2896 974.18 2896 967Z" fill="#D41159" fill-rule="evenodd"/><path d="M2899 1233C2899 1225.82 2904.82 1220 2912 1220 2919.18 1220 2925 1225.82 2925 1233 2925 1240.18 2919.18 1246 2912 1246 2904.82 1246 2899 1240.18 2899 1233Z" fill="#D41159" fill-rule="evenodd"/><path d="M2592.5 1528.5 2908.5 1528.5 2908.4 1528.56C2861.46 1554.03 2807.67 1568.5 2750.5 1568.5 2693.33 1568.5 2639.54 1554.03 2592.6 1528.56Z" stroke="#000000" stroke-width="0" stroke-miterlimit="8" fill-rule="evenodd"/></g></svg>